<svg xmlns="http://www.w3.org/2000/svg" xmlns:xlink="http://www.w3.org/1999/xlink" width="500" zoomAndPan="magnify" viewBox="0 0 375 374.999991" height="500" preserveAspectRatio="xMidYMid meet" version="1.0"><defs><g/><clipPath id="1276bcc7ec"><path d="M 17.507812 17.71875 L 357.75 17.71875 L 357.75 357.28125 L 17.507812 357.28125 Z M 17.507812 17.71875 " clip-rule="nonzero"/></clipPath><clipPath id="86cc181b2a"><path d="M 352.054688 187.5 C 352.054688 169.78125 360.878906 150.976562 355.449219 135.023438 C 349.882812 118.460938 331.011719 108.277344 320.625 94.496094 C 310.101562 80.578125 305.757812 60.28125 291.296875 50.167969 C 276.972656 40.1875 255.589844 42.425781 238.414062 36.996094 C 221.78125 31.835938 205.964844 17.71875 187.566406 17.71875 C 169.171875 17.71875 153.285156 31.769531 136.722656 36.996094 C 119.546875 42.359375 98.09375 40.121094 83.769531 50.167969 C 69.308594 60.28125 64.964844 80.578125 54.445312 94.496094 C 43.988281 108.277344 25.183594 118.460938 19.550781 135.023438 C 14.1875 150.976562 22.945312 169.78125 22.945312 187.5 C 22.945312 205.21875 14.121094 224.023438 19.550781 239.976562 C 25.117188 256.539062 43.988281 266.722656 54.375 280.503906 C 64.898438 294.421875 69.242188 314.71875 83.703125 324.832031 C 98.027344 334.878906 119.410156 332.640625 136.652344 338.003906 C 153.285156 343.164062 169.101562 357.28125 187.5 357.28125 C 205.898438 357.28125 221.78125 343.230469 238.347656 338.003906 C 255.523438 332.640625 276.972656 334.878906 291.296875 324.832031 C 305.757812 314.71875 310.101562 294.421875 320.625 280.503906 C 331.078125 266.722656 349.882812 256.539062 355.449219 239.976562 C 360.878906 223.953125 352.054688 205.148438 352.054688 187.5 Z M 352.054688 187.5 " clip-rule="nonzero"/></clipPath><clipPath id="5ee73504df"><path d="M 37.5 37.5 L 337.5 37.5 L 337.5 337.5 L 37.5 337.5 Z M 37.5 37.5 " clip-rule="nonzero"/></clipPath><clipPath id="37dda5f3a7"><path d="M 187.5 37.5 C 270.359375 37.5 337.5 104.640625 337.5 187.5 C 337.5 270.359375 270.359375 337.5 187.5 337.5 C 104.640625 337.5 37.5 270.359375 37.5 187.5 C 37.5 104.640625 104.640625 37.5 187.5 37.5 Z M 187.5 37.5 " clip-rule="nonzero"/></clipPath><clipPath id="7a83ab5ef9"><path d="M 48.285156 48.285156 L 326.714844 48.285156 L 326.714844 326.714844 L 48.285156 326.714844 Z M 48.285156 48.285156 " clip-rule="nonzero"/></clipPath><clipPath id="d0dd2549bc"><path d="M 187.5 326.714844 C 150.332031 326.714844 115.332031 312.246094 89.070312 285.929688 C 62.753906 259.667969 48.285156 224.667969 48.285156 187.5 C 48.285156 150.332031 62.753906 115.332031 89.070312 89.070312 C 115.332031 62.753906 150.332031 48.285156 187.5 48.285156 C 224.667969 48.285156 259.667969 62.753906 285.929688 89.070312 C 312.246094 115.390625 326.714844 150.332031 326.714844 187.5 C 326.714844 224.667969 312.246094 259.667969 285.929688 285.929688 C 259.667969 312.246094 224.667969 326.714844 187.5 326.714844 Z M 187.5 56.632812 C 152.558594 56.632812 119.671875 70.265625 94.96875 94.96875 C 70.265625 119.671875 56.632812 152.558594 56.632812 187.5 C 56.632812 222.441406 70.265625 255.328125 94.96875 280.03125 C 119.671875 304.734375 152.558594 318.367188 187.5 318.367188 C 222.441406 318.367188 255.328125 304.734375 280.03125 280.03125 C 304.734375 255.328125 318.367188 222.441406 318.367188 187.5 C 318.367188 152.558594 304.734375 119.671875 280.03125 94.96875 C 255.328125 70.265625 222.441406 56.632812 187.5 56.632812 Z M 187.5 56.632812 " clip-rule="nonzero"/></clipPath></defs><g clip-path="url(#1276bcc7ec)"><g clip-path="url(#86cc181b2a)"><path fill="#ac1356" d="M 14.121094 17.71875 L 361.140625 17.71875 L 361.140625 357.28125 L 14.121094 357.28125 Z M 14.121094 17.71875 " fill-opacity="1" fill-rule="nonzero"/></g></g><g clip-path="url(#5ee73504df)"><g clip-path="url(#37dda5f3a7)"><path fill="#ffffff" d="M 37.5 37.5 L 337.5 37.5 L 337.5 337.5 L 37.5 337.5 Z M 37.5 37.5 " fill-opacity="1" fill-rule="nonzero"/></g></g><g clip-path="url(#7a83ab5ef9)"><g clip-path="url(#d0dd2549bc)"><path fill="#ac1356" d="M 48.285156 48.285156 L 326.714844 48.285156 L 326.714844 326.714844 L 48.285156 326.714844 Z M 48.285156 48.285156 " fill-opacity="1" fill-rule="nonzero"/></g></g><g fill="#222222" fill-opacity="1"><g transform="translate(122.486115, 283.451735)"><g><path d="M 17.90625 -16.984375 C 17.375 -15.609375 16.863281 -13.769531 16.375 -11.46875 L 15.84375 -11.46875 C 15.96875 -12.207031 16.03125 -12.84375 16.03125 -13.375 C 16.03125 -14.101562 15.894531 -14.707031 15.625 -15.1875 C 15.0625 -16.226562 14.117188 -16.75 12.796875 -16.75 C 11.515625 -16.75 10.289062 -16.1875 9.125 -15.0625 C 7.96875 -13.9375 7.039062 -12.472656 6.34375 -10.671875 C 5.644531 -8.867188 5.296875 -7.023438 5.296875 -5.140625 C 5.296875 -3.554688 5.582031 -2.367188 6.15625 -1.578125 C 6.726562 -0.785156 7.523438 -0.390625 8.546875 -0.390625 C 9.148438 -0.390625 9.78125 -0.523438 10.4375 -0.796875 C 11.09375 -1.078125 11.660156 -1.46875 12.140625 -1.96875 C 12.554688 -2.414062 12.921875 -2.914062 13.234375 -3.46875 C 13.546875 -4.019531 13.898438 -4.785156 14.296875 -5.765625 L 14.828125 -5.765625 C 14.078125 -2.992188 13.609375 -1.070312 13.421875 0 L 12.890625 0 C 12.929688 -0.332031 12.953125 -0.601562 12.953125 -0.8125 C 12.953125 -1.226562 12.847656 -1.4375 12.640625 -1.4375 C 12.515625 -1.4375 12.359375 -1.363281 12.171875 -1.21875 C 11.429688 -0.726562 10.691406 -0.34375 9.953125 -0.0625 C 9.222656 0.207031 8.394531 0.34375 7.46875 0.34375 C 5.320312 0.34375 3.710938 -0.164062 2.640625 -1.1875 C 1.566406 -2.21875 1.03125 -3.691406 1.03125 -5.609375 C 1.03125 -7.503906 1.53125 -9.359375 2.53125 -11.171875 C 3.53125 -12.984375 4.910156 -14.460938 6.671875 -15.609375 C 8.429688 -16.753906 10.375 -17.328125 12.5 -17.328125 C 13.394531 -17.328125 14.101562 -17.191406 14.625 -16.921875 C 15.144531 -16.648438 15.628906 -16.265625 16.078125 -15.765625 C 16.203125 -15.617188 16.320312 -15.546875 16.4375 -15.546875 C 16.726562 -15.546875 17.050781 -16.023438 17.40625 -16.984375 Z M 17.90625 -16.984375 "/></g></g></g><g fill="#222222" fill-opacity="1"><g transform="translate(139.596545, 283.451735)"><g><path d="M 0.28125 -3.625 C 0.28125 -4.9375 0.582031 -6.300781 1.1875 -7.71875 C 1.789062 -9.144531 2.675781 -10.335938 3.84375 -11.296875 C 5.019531 -12.265625 6.425781 -12.75 8.0625 -12.75 C 9.3125 -12.75 10.269531 -12.40625 10.9375 -11.71875 C 11.613281 -11.039062 11.953125 -10.0625 11.953125 -8.78125 C 11.953125 -7.46875 11.648438 -6.097656 11.046875 -4.671875 C 10.453125 -3.253906 9.566406 -2.0625 8.390625 -1.09375 C 7.210938 -0.132812 5.804688 0.34375 4.171875 0.34375 C 2.921875 0.34375 1.957031 0.00390625 1.28125 -0.671875 C 0.613281 -1.359375 0.28125 -2.34375 0.28125 -3.625 Z M 7.9375 -12.265625 C 7.351562 -12.265625 6.707031 -11.695312 6 -10.5625 C 5.289062 -9.425781 4.695312 -8.03125 4.21875 -6.375 C 3.738281 -4.726562 3.5 -3.195312 3.5 -1.78125 C 3.5 -1.195312 3.5625 -0.773438 3.6875 -0.515625 C 3.820312 -0.265625 4.03125 -0.140625 4.3125 -0.140625 C 4.90625 -0.140625 5.550781 -0.691406 6.25 -1.796875 C 6.945312 -2.898438 7.535156 -4.269531 8.015625 -5.90625 C 8.492188 -7.550781 8.734375 -9.109375 8.734375 -10.578125 C 8.734375 -11.203125 8.671875 -11.640625 8.546875 -11.890625 C 8.421875 -12.140625 8.21875 -12.265625 7.9375 -12.265625 Z M 7.9375 -12.265625 "/></g></g></g><g fill="#222222" fill-opacity="1"><g transform="translate(152.771345, 283.451735)"><g><path d="M 13.421875 -3.890625 L 12.8125 -2.140625 C 12.238281 -0.484375 11.164062 0.34375 9.59375 0.34375 C 8.695312 0.34375 8.0625 0.078125 7.6875 -0.453125 C 7.476562 -0.753906 7.375 -1.128906 7.375 -1.578125 C 7.375 -2.097656 7.5 -2.734375 7.75 -3.484375 L 9.90625 -9.953125 C 10.050781 -10.390625 10.125 -10.734375 10.125 -10.984375 C 10.125 -11.359375 9.972656 -11.546875 9.671875 -11.546875 C 9.191406 -11.546875 8.609375 -11.054688 7.921875 -10.078125 C 7.242188 -9.097656 6.5625 -7.8125 5.875 -6.21875 C 5.1875 -4.632812 4.585938 -2.960938 4.078125 -1.203125 L 3.765625 0 L 0.390625 0 L 3.28125 -10.375 C 3.382812 -10.65625 3.4375 -10.910156 3.4375 -11.140625 C 3.4375 -11.421875 3.300781 -11.5625 3.03125 -11.5625 C 2.71875 -11.5625 2.445312 -11.421875 2.21875 -11.140625 C 1.988281 -10.867188 1.742188 -10.378906 1.484375 -9.671875 L 1.03125 -8.453125 L 0.578125 -8.453125 L 1.21875 -10.265625 C 1.53125 -11.148438 1.941406 -11.785156 2.453125 -12.171875 C 2.960938 -12.554688 3.582031 -12.75 4.3125 -12.75 C 5.695312 -12.75 6.390625 -12.09375 6.390625 -10.78125 C 6.390625 -10.332031 6.320312 -9.867188 6.1875 -9.390625 L 5.453125 -6.484375 C 6.109375 -8.109375 6.734375 -9.375 7.328125 -10.28125 C 7.929688 -11.1875 8.539062 -11.820312 9.15625 -12.1875 C 9.769531 -12.5625 10.453125 -12.75 11.203125 -12.75 C 12.648438 -12.75 13.375 -12.109375 13.375 -10.828125 C 13.375 -10.347656 13.269531 -9.78125 13.0625 -9.125 L 10.703125 -2.046875 C 10.609375 -1.753906 10.5625 -1.519531 10.5625 -1.34375 C 10.5625 -1.007812 10.710938 -0.84375 11.015625 -0.84375 C 11.273438 -0.84375 11.523438 -0.976562 11.765625 -1.25 C 12.015625 -1.519531 12.269531 -2.015625 12.53125 -2.734375 L 12.953125 -3.890625 Z M 13.421875 -3.890625 "/></g></g></g><g fill="#222222" fill-opacity="1"><g transform="translate(167.721975, 283.451735)"><g><path d="M 9.625 -18.765625 C 10.613281 -18.765625 11.390625 -18.554688 11.953125 -18.140625 C 12.515625 -17.722656 12.796875 -17.164062 12.796875 -16.46875 C 12.796875 -15.9375 12.582031 -15.453125 12.15625 -15.015625 C 11.726562 -14.585938 11.203125 -14.375 10.578125 -14.375 C 10.097656 -14.375 9.722656 -14.484375 9.453125 -14.703125 C 9.179688 -14.929688 9.046875 -15.253906 9.046875 -15.671875 C 9.046875 -16.203125 9.210938 -16.675781 9.546875 -17.09375 C 9.890625 -17.507812 10.335938 -17.820312 10.890625 -18.03125 C 10.816406 -18.125 10.707031 -18.195312 10.5625 -18.25 C 10.414062 -18.3125 10.253906 -18.34375 10.078125 -18.34375 C 9.597656 -18.34375 9.175781 -18.179688 8.8125 -17.859375 C 8.519531 -17.597656 8.269531 -17.1875 8.0625 -16.625 C 7.851562 -16.070312 7.613281 -15.28125 7.34375 -14.25 L 6.84375 -12.40625 L 9.40625 -12.40625 L 9.265625 -11.921875 L 6.71875 -11.921875 L 2.40625 4.171875 C 1.0625 4.191406 -0.0976562 4.304688 -1.078125 4.515625 L 3.34375 -11.921875 L 1.3125 -11.921875 L 1.46875 -12.40625 L 3.453125 -12.40625 C 3.804688 -13.707031 4.207031 -14.785156 4.65625 -15.640625 C 5.101562 -16.492188 5.628906 -17.164062 6.234375 -17.65625 C 7.128906 -18.394531 8.257812 -18.765625 9.625 -18.765625 Z M 9.625 -18.765625 "/></g></g></g><g fill="#222222" fill-opacity="1"><g transform="translate(176.385204, 283.451735)"><g><path d="M 11.234375 -10.84375 C 11.234375 -9.519531 10.488281 -8.359375 9 -7.359375 C 7.507812 -6.367188 5.78125 -5.601562 3.8125 -5.0625 C 3.71875 -4.519531 3.671875 -3.976562 3.671875 -3.4375 C 3.671875 -2.582031 3.828125 -1.976562 4.140625 -1.625 C 4.453125 -1.28125 4.910156 -1.109375 5.515625 -1.109375 C 6.015625 -1.109375 6.578125 -1.265625 7.203125 -1.578125 C 7.828125 -1.890625 8.4375 -2.390625 9.03125 -3.078125 L 9.40625 -2.875 C 8.832031 -1.976562 8.0625 -1.21875 7.09375 -0.59375 C 6.125 0.03125 5.039062 0.34375 3.84375 0.34375 C 2.738281 0.34375 1.832031 0.046875 1.125 -0.546875 C 0.425781 -1.140625 0.078125 -1.972656 0.078125 -3.046875 C 0.078125 -4.472656 0.457031 -5.945312 1.21875 -7.46875 C 1.988281 -8.988281 3.035156 -10.25 4.359375 -11.25 C 5.691406 -12.25 7.148438 -12.75 8.734375 -12.75 C 9.472656 -12.75 10.070312 -12.582031 10.53125 -12.25 C 11 -11.925781 11.234375 -11.457031 11.234375 -10.84375 Z M 8.203125 -12.28125 C 7.742188 -12.28125 7.21875 -11.953125 6.625 -11.296875 C 6.03125 -10.640625 5.484375 -9.785156 4.984375 -8.734375 C 4.492188 -7.691406 4.128906 -6.617188 3.890625 -5.515625 C 5.023438 -6.015625 5.90625 -6.550781 6.53125 -7.125 C 7.164062 -7.695312 7.664062 -8.351562 8.03125 -9.09375 C 8.40625 -9.84375 8.59375 -10.644531 8.59375 -11.5 C 8.59375 -11.800781 8.5625 -12.003906 8.5 -12.109375 C 8.4375 -12.222656 8.335938 -12.28125 8.203125 -12.28125 Z M 8.203125 -12.28125 "/></g></g></g><g fill="#222222" fill-opacity="1"><g transform="translate(188.120143, 283.451735)"><g><path d="M 4.25 -16.421875 C 4.257812 -17.078125 4.492188 -17.59375 4.953125 -17.96875 C 5.421875 -18.351562 6.003906 -18.546875 6.703125 -18.546875 C 7.253906 -18.546875 7.6875 -18.414062 8 -18.15625 C 8.3125 -17.894531 8.46875 -17.53125 8.46875 -17.0625 C 8.46875 -16.425781 8.226562 -15.898438 7.75 -15.484375 C 7.269531 -15.066406 6.675781 -14.859375 5.96875 -14.859375 C 5.394531 -14.859375 4.957031 -15 4.65625 -15.28125 C 4.351562 -15.5625 4.21875 -15.941406 4.25 -16.421875 Z M 3.34375 -10.375 C 3.445312 -10.738281 3.5 -10.976562 3.5 -11.09375 C 3.5 -11.40625 3.359375 -11.5625 3.078125 -11.5625 C 2.785156 -11.5625 2.519531 -11.414062 2.28125 -11.125 C 2.039062 -10.832031 1.789062 -10.347656 1.53125 -9.671875 L 1.0625 -8.453125 L 0.59375 -8.453125 L 1.265625 -10.265625 C 1.859375 -11.921875 2.972656 -12.75 4.609375 -12.75 C 5.347656 -12.75 5.882812 -12.566406 6.21875 -12.203125 C 6.550781 -11.835938 6.71875 -11.367188 6.71875 -10.796875 C 6.71875 -10.335938 6.628906 -9.867188 6.453125 -9.390625 L 3.9375 -2.046875 C 3.84375 -1.753906 3.796875 -1.519531 3.796875 -1.34375 C 3.796875 -1.007812 3.953125 -0.84375 4.265625 -0.84375 C 4.503906 -0.84375 4.75 -0.976562 5 -1.25 C 5.25 -1.519531 5.507812 -2.015625 5.78125 -2.734375 L 6.21875 -3.890625 L 6.671875 -3.890625 L 6.046875 -2.140625 C 5.484375 -0.484375 4.40625 0.34375 2.8125 0.34375 C 1.351562 0.34375 0.625 -0.320312 0.625 -1.65625 C 0.625 -2.1875 0.742188 -2.796875 0.984375 -3.484375 Z M 3.34375 -10.375 "/></g></g></g><g fill="#222222" fill-opacity="1"><g transform="translate(196.327414, 283.451735)"><g><path d="M 3.9375 -2.046875 C 3.882812 -1.878906 3.859375 -1.71875 3.859375 -1.5625 C 3.859375 -1.320312 3.921875 -1.140625 4.046875 -1.015625 C 4.179688 -0.898438 4.359375 -0.84375 4.578125 -0.84375 C 4.929688 -0.84375 5.269531 -1.015625 5.59375 -1.359375 C 5.925781 -1.703125 6.222656 -2.21875 6.484375 -2.90625 L 6.84375 -3.890625 L 7.296875 -3.890625 L 6.8125 -2.5 C 6.1875 -0.601562 4.988281 0.34375 3.21875 0.34375 C 2.394531 0.34375 1.78125 0.128906 1.375 -0.296875 C 0.96875 -0.722656 0.765625 -1.304688 0.765625 -2.046875 C 0.765625 -2.503906 0.835938 -2.984375 0.984375 -3.484375 L 3.40625 -11.921875 L 1.25 -11.921875 L 1.375 -12.40625 L 3.546875 -12.40625 L 4.578125 -15.984375 C 5.941406 -16.003906 7.101562 -16.113281 8.0625 -16.3125 L 6.9375 -12.40625 L 9.640625 -12.40625 L 9.578125 -11.921875 L 6.796875 -11.921875 Z M 3.9375 -2.046875 "/></g></g></g><g fill="#222222" fill-opacity="1"><g transform="translate(205.278614, 283.451735)"><g><path d="M 11.875 -3.890625 L 12.34375 -3.890625 L 11.734375 -2.140625 C 11.410156 -1.242188 10.960938 -0.601562 10.390625 -0.21875 C 9.828125 0.15625 9.21875 0.34375 8.5625 0.34375 C 7.726562 0.34375 7.140625 0.09375 6.796875 -0.40625 C 6.566406 -0.695312 6.453125 -1.097656 6.453125 -1.609375 C 6.453125 -2.023438 6.523438 -2.5 6.671875 -3.03125 C 6.128906 -1.84375 5.523438 -0.984375 4.859375 -0.453125 C 4.191406 0.078125 3.457031 0.34375 2.65625 0.34375 C 1.78125 0.34375 1.113281 0.0820312 0.65625 -0.4375 C 0.195312 -0.957031 -0.03125 -1.679688 -0.03125 -2.609375 C -0.03125 -4.035156 0.347656 -5.546875 1.109375 -7.140625 C 1.867188 -8.734375 2.832031 -10.066406 4 -11.140625 C 5.175781 -12.210938 6.320312 -12.75 7.4375 -12.75 C 7.875 -12.75 8.222656 -12.617188 8.484375 -12.359375 C 8.742188 -12.097656 8.898438 -11.710938 8.953125 -11.203125 L 9.28125 -12.390625 C 10.5625 -12.398438 11.722656 -12.519531 12.765625 -12.75 L 9.625 -2.046875 C 9.539062 -1.765625 9.5 -1.539062 9.5 -1.375 C 9.5 -1.019531 9.648438 -0.84375 9.953125 -0.84375 C 10.515625 -0.84375 11.015625 -1.472656 11.453125 -2.734375 Z M 8.6875 -10.265625 C 8.707031 -10.347656 8.71875 -10.46875 8.71875 -10.625 C 8.71875 -11.03125 8.644531 -11.335938 8.5 -11.546875 C 8.363281 -11.753906 8.160156 -11.859375 7.890625 -11.859375 C 7.347656 -11.859375 6.726562 -11.367188 6.03125 -10.390625 C 5.332031 -9.410156 4.738281 -8.1875 4.25 -6.71875 C 3.769531 -5.25 3.53125 -3.828125 3.53125 -2.453125 C 3.53125 -1.921875 3.582031 -1.535156 3.6875 -1.296875 C 3.789062 -1.066406 3.960938 -0.953125 4.203125 -0.953125 C 4.554688 -0.953125 4.941406 -1.195312 5.359375 -1.6875 C 5.785156 -2.175781 6.207031 -2.878906 6.625 -3.796875 C 7.050781 -4.722656 7.425781 -5.816406 7.75 -7.078125 L 7.625 -6.5 Z M 8.6875 -10.265625 "/></g></g></g><g fill="#222222" fill-opacity="1"><g transform="translate(219.149352, 283.451735)"><g><path d="M 10.015625 -12.75 C 10.617188 -12.75 11.09375 -12.566406 11.4375 -12.203125 C 11.78125 -11.835938 11.953125 -11.367188 11.953125 -10.796875 C 11.953125 -10.109375 11.726562 -9.519531 11.28125 -9.03125 C 10.84375 -8.539062 10.304688 -8.296875 9.671875 -8.296875 C 9.203125 -8.296875 8.835938 -8.421875 8.578125 -8.671875 C 8.328125 -8.921875 8.203125 -9.28125 8.203125 -9.75 C 8.203125 -10.300781 8.394531 -10.804688 8.78125 -11.265625 C 9.164062 -11.722656 9.640625 -12.015625 10.203125 -12.140625 C 10.171875 -12.140625 10.117188 -12.148438 10.046875 -12.171875 C 9.984375 -12.203125 9.929688 -12.21875 9.890625 -12.21875 C 9.066406 -12.21875 8.234375 -11.625 7.390625 -10.4375 C 6.546875 -9.25 5.679688 -7.140625 4.796875 -4.109375 L 3.75 0 L 0.359375 0 L 3.28125 -10.375 C 3.363281 -10.625 3.40625 -10.867188 3.40625 -11.109375 C 3.40625 -11.410156 3.28125 -11.5625 3.03125 -11.5625 C 2.71875 -11.5625 2.441406 -11.414062 2.203125 -11.125 C 1.960938 -10.84375 1.71875 -10.359375 1.46875 -9.671875 L 1.015625 -8.453125 L 0.546875 -8.453125 L 1.203125 -10.265625 C 1.796875 -11.921875 2.898438 -12.75 4.515625 -12.75 C 5.742188 -12.75 6.359375 -12.097656 6.359375 -10.796875 C 6.359375 -10.335938 6.296875 -9.867188 6.171875 -9.390625 L 5.96875 -8.609375 C 6.5625 -10.128906 7.164062 -11.195312 7.78125 -11.8125 C 8.40625 -12.4375 9.148438 -12.75 10.015625 -12.75 Z M 10.015625 -12.75 "/></g></g></g><g fill="#222222" fill-opacity="1"><g transform="translate(230.908285, 283.451735)"><g><path d="M 4.25 -16.421875 C 4.257812 -17.078125 4.492188 -17.59375 4.953125 -17.96875 C 5.421875 -18.351562 6.003906 -18.546875 6.703125 -18.546875 C 7.253906 -18.546875 7.6875 -18.414062 8 -18.15625 C 8.3125 -17.894531 8.46875 -17.53125 8.46875 -17.0625 C 8.46875 -16.425781 8.226562 -15.898438 7.75 -15.484375 C 7.269531 -15.066406 6.675781 -14.859375 5.96875 -14.859375 C 5.394531 -14.859375 4.957031 -15 4.65625 -15.28125 C 4.351562 -15.5625 4.21875 -15.941406 4.25 -16.421875 Z M 3.34375 -10.375 C 3.445312 -10.738281 3.5 -10.976562 3.5 -11.09375 C 3.5 -11.40625 3.359375 -11.5625 3.078125 -11.5625 C 2.785156 -11.5625 2.519531 -11.414062 2.28125 -11.125 C 2.039062 -10.832031 1.789062 -10.347656 1.53125 -9.671875 L 1.0625 -8.453125 L 0.59375 -8.453125 L 1.265625 -10.265625 C 1.859375 -11.921875 2.972656 -12.75 4.609375 -12.75 C 5.347656 -12.75 5.882812 -12.566406 6.21875 -12.203125 C 6.550781 -11.835938 6.71875 -11.367188 6.71875 -10.796875 C 6.71875 -10.335938 6.628906 -9.867188 6.453125 -9.390625 L 3.9375 -2.046875 C 3.84375 -1.753906 3.796875 -1.519531 3.796875 -1.34375 C 3.796875 -1.007812 3.953125 -0.84375 4.265625 -0.84375 C 4.503906 -0.84375 4.75 -0.976562 5 -1.25 C 5.25 -1.519531 5.507812 -2.015625 5.78125 -2.734375 L 6.21875 -3.890625 L 6.671875 -3.890625 L 6.046875 -2.140625 C 5.484375 -0.484375 4.40625 0.34375 2.8125 0.34375 C 1.351562 0.34375 0.625 -0.320312 0.625 -1.65625 C 0.625 -2.1875 0.742188 -2.796875 0.984375 -3.484375 Z M 3.34375 -10.375 "/></g></g></g><g fill="#222222" fill-opacity="1"><g transform="translate(239.115555, 283.451735)"><g><path d="M 11.875 -3.890625 L 12.34375 -3.890625 L 11.734375 -2.140625 C 11.410156 -1.242188 10.960938 -0.601562 10.390625 -0.21875 C 9.828125 0.15625 9.21875 0.34375 8.5625 0.34375 C 7.726562 0.34375 7.140625 0.09375 6.796875 -0.40625 C 6.566406 -0.695312 6.453125 -1.097656 6.453125 -1.609375 C 6.453125 -2.023438 6.523438 -2.5 6.671875 -3.03125 C 6.128906 -1.84375 5.523438 -0.984375 4.859375 -0.453125 C 4.191406 0.078125 3.457031 0.34375 2.65625 0.34375 C 1.78125 0.34375 1.113281 0.0820312 0.65625 -0.4375 C 0.195312 -0.957031 -0.03125 -1.679688 -0.03125 -2.609375 C -0.03125 -4.035156 0.347656 -5.546875 1.109375 -7.140625 C 1.867188 -8.734375 2.832031 -10.066406 4 -11.140625 C 5.175781 -12.210938 6.320312 -12.75 7.4375 -12.75 C 7.875 -12.75 8.222656 -12.617188 8.484375 -12.359375 C 8.742188 -12.097656 8.898438 -11.710938 8.953125 -11.203125 L 9.28125 -12.390625 C 10.5625 -12.398438 11.722656 -12.519531 12.765625 -12.75 L 9.625 -2.046875 C 9.539062 -1.765625 9.5 -1.539062 9.5 -1.375 C 9.5 -1.019531 9.648438 -0.84375 9.953125 -0.84375 C 10.515625 -0.84375 11.015625 -1.472656 11.453125 -2.734375 Z M 8.6875 -10.265625 C 8.707031 -10.347656 8.71875 -10.46875 8.71875 -10.625 C 8.71875 -11.03125 8.644531 -11.335938 8.5 -11.546875 C 8.363281 -11.753906 8.160156 -11.859375 7.890625 -11.859375 C 7.347656 -11.859375 6.726562 -11.367188 6.03125 -10.390625 C 5.332031 -9.410156 4.738281 -8.1875 4.25 -6.71875 C 3.769531 -5.25 3.53125 -3.828125 3.53125 -2.453125 C 3.53125 -1.921875 3.582031 -1.535156 3.6875 -1.296875 C 3.789062 -1.066406 3.960938 -0.953125 4.203125 -0.953125 C 4.554688 -0.953125 4.941406 -1.195312 5.359375 -1.6875 C 5.785156 -2.175781 6.207031 -2.878906 6.625 -3.796875 C 7.050781 -4.722656 7.425781 -5.816406 7.75 -7.078125 L 7.625 -6.5 Z M 8.6875 -10.265625 "/></g></g></g><g fill="#222222" fill-opacity="1"><g transform="translate(88.255007, 155.276181)"><g><path d="M 42.640625 -60.3125 C 40.15625 -59.59375 37.6875 -56.5625 35.921875 -54.796875 C 34.796875 -53.765625 33.6875 -52.640625 32.640625 -51.4375 C 31.921875 -50.640625 30.078125 -49.046875 29.921875 -47.921875 C 30 -47.84375 30 -47.84375 30.078125 -47.84375 L 28.953125 -46.40625 C 28.875 -46.3125 29.59375 -47.515625 29.6875 -47.59375 C 29.28125 -47.4375 28.640625 -46 28.640625 -46 C 26.40625 -43.125 23.921875 -40.484375 21.84375 -37.4375 C 19.515625 -34 17.59375 -30.484375 15.765625 -26.796875 C 16.71875 -30.484375 18.078125 -34 19.4375 -37.515625 L 17.515625 -33.4375 L 18.3125 -35.28125 C 15.6875 -30.40625 13.4375 -25.28125 11.84375 -20 C 15.046875 -30.796875 19.515625 -42.078125 26.5625 -53.6875 C 26.3125 -53.203125 26.078125 -52.5625 26.15625 -52.5625 C 26.484375 -52.484375 28.078125 -55.59375 27.84375 -55.6875 L 27.59375 -55.515625 C 28.078125 -56.40625 28.3125 -56.875 27.84375 -58.15625 C 27.359375 -59.4375 26.15625 -61.6875 24.484375 -60.953125 C 23.4375 -60.5625 22.5625 -58.640625 22.15625 -57.84375 C 21.921875 -57.4375 21.84375 -56.796875 21.59375 -56.484375 C 21.28125 -56 20.71875 -55.765625 20.234375 -55.125 C 19.203125 -53.515625 18.484375 -51.59375 17.765625 -49.84375 C 17.359375 -48.875 12.953125 -39.359375 13.125 -39.28125 C 13.28125 -39.359375 13.359375 -39.515625 13.4375 -39.6875 C 13.203125 -38.953125 12.875 -38.234375 12.5625 -37.515625 C 12.484375 -37.59375 12.796875 -38.15625 12.640625 -38.15625 C 11.921875 -38.3125 9.515625 -31.6875 9.359375 -31.046875 C 9.046875 -29.515625 8.640625 -28.15625 8 -26.640625 C 7.59375 -25.6875 7.203125 -24.71875 6.875 -23.765625 C 6.875 -23.6875 6.484375 -21.6875 6.796875 -22.40625 C 6.796875 -22.15625 6.71875 -22 6.640625 -21.765625 C 6.640625 -21.84375 6.640625 -22 6.5625 -22.078125 C 6.40625 -22 5.921875 -19.59375 5.765625 -19.28125 C 5.203125 -18.078125 4.5625 -16.875 4.078125 -15.59375 C 2.875 -12.234375 2.3125 -8.796875 1.515625 -5.28125 C 0.953125 -2.640625 -0.796875 1.59375 0.40625 4.234375 C 1.515625 6.71875 5.359375 6.5625 7.125 4.71875 C 7.125 4.875 7.203125 4.953125 7.28125 5.046875 C 8.078125 -0.953125 10.40625 -7.046875 12.796875 -12.640625 C 13.28125 -11.765625 13.046875 -11.359375 13.359375 -10.3125 C 13.765625 -8.71875 14.796875 -7.359375 15.515625 -5.921875 C 15.84375 -5.28125 19.4375 1.765625 19.59375 1.6875 C 19.6875 1.515625 19.59375 1.359375 19.59375 1.28125 C 19.84375 1.84375 20.15625 2.3125 20.484375 2.875 C 20.40625 2.875 20.234375 2.484375 20.078125 2.5625 C 19.4375 3.046875 22.796875 7.765625 23.203125 8.078125 C 24.078125 9.125 24.875 10.078125 25.59375 11.125 C 26.078125 11.765625 26.484375 12.40625 27.046875 12.875 C 27.125 12.953125 28.078125 13.6875 27.921875 13.359375 C 28 13.4375 28.15625 13.515625 28.234375 13.6875 C 28.234375 13.6875 28.15625 13.59375 28.078125 13.59375 C 28 13.84375 31.84375 17.4375 32.15625 17.6875 C 33.59375 18.5625 35.203125 19.125 36.875 18.953125 C 41.4375 18.5625 44.953125 14.640625 47.515625 11.359375 C 48.15625 10.5625 48.484375 9.921875 48.40625 9.046875 C 48.234375 6.875 47.4375 7.921875 46.71875 8.71875 C 45.359375 10.15625 42.796875 11.765625 40.71875 11.765625 C 39.921875 11.84375 39.125 11.515625 38.3125 11.203125 C 38 11.046875 35.203125 9.359375 35.203125 9.4375 C 35.28125 9.59375 35.359375 9.84375 35.515625 10 C 34.15625 8.875 32.71875 6.875 31.4375 5.4375 L 25.921875 -0.875 C 25.203125 -1.6875 20.078125 -8.953125 17.84375 -12.640625 L 20.40625 -8.078125 C 18.953125 -10.3125 17.6875 -12.640625 16.40625 -15.046875 C 20.40625 -14.796875 25.203125 -17.921875 28.484375 -20 C 31.4375 -22 33.6875 -25.203125 36.234375 -28 C 41.359375 -33.359375 46.15625 -39.921875 47.515625 -47.4375 C 45.6875 -37.046875 39.4375 -28.875 31.6875 -22.15625 C 34.234375 -22.796875 36.796875 -25.765625 38.5625 -27.59375 C 40.5625 -29.515625 42.3125 -31.765625 44 -34 C 45.921875 -36.640625 47.515625 -39.515625 48.640625 -42.640625 C 49.125 -43.84375 50.796875 -47.359375 50.484375 -48.953125 C 50.484375 -48.953125 50.234375 -48.40625 50.078125 -48 C 50.3125 -49.359375 50.484375 -50.640625 50.40625 -52.078125 C 50.484375 -51.765625 50.640625 -51.28125 50.5625 -51.203125 C 50.71875 -51.28125 50.640625 -52.3125 50.640625 -52.71875 C 50.640625 -52.71875 50.5625 -53.28125 50.640625 -53.125 C 50.3125 -56.953125 46.796875 -61.515625 42.640625 -60.3125 Z M 42.5625 -50.5625 C 42.484375 -50.234375 42.484375 -50.3125 42.5625 -50.484375 C 42.15625 -44.953125 39.046875 -39.515625 35.921875 -35.125 C 34.3125 -32.796875 32.484375 -30.640625 30.5625 -28.5625 C 29.6875 -27.6875 28.71875 -26.796875 27.765625 -26 C 27.046875 -25.28125 25.515625 -24.484375 24.796875 -23.59375 C 25.4375 -24.234375 26.875 -25.046875 27.515625 -25.515625 C 28.796875 -26.640625 30.078125 -27.921875 31.28125 -29.125 C 33.203125 -31.203125 35.046875 -33.359375 36.640625 -35.6875 C 31.765625 -28.40625 25.046875 -22.078125 16.953125 -18.71875 C 17.59375 -19.125 19.203125 -19.921875 19.203125 -20 C 19.046875 -20.15625 15.84375 -18.71875 15.515625 -18.5625 C 16.5625 -20.640625 17.59375 -22.71875 18.71875 -24.796875 C 19.046875 -25.28125 21.59375 -30.15625 21.59375 -30.15625 C 21.4375 -30.15625 21.28125 -30.078125 21.203125 -29.84375 C 24.71875 -35.515625 29.359375 -41.203125 33.6875 -46.40625 C 35.046875 -48 42.953125 -58.3125 42.5625 -50.640625 Z M 23.765625 -47.359375 C 23.921875 -47.6875 24.640625 -49.515625 24.484375 -49.203125 L 22.40625 -44.640625 C 22.875 -45.515625 23.359375 -46.40625 23.765625 -47.359375 Z M 16.875 -14.640625 C 16.71875 -14.5625 17.203125 -13.765625 17.84375 -12.640625 C 17.28125 -13.765625 16.796875 -14.640625 16.875 -14.640625 Z M 22.5625 -4.875 C 22.5625 -4.875 22.5625 -4.953125 22.640625 -4.796875 L 22.640625 -4.71875 Z M 22.5625 -4.875 C 22.484375 -4.875 22.484375 -4.953125 22.40625 -5.046875 C 22.484375 -4.953125 22.484375 -4.875 22.5625 -4.875 Z M 20.484375 -28.71875 C 20.484375 -28.796875 20.5625 -28.796875 20.5625 -28.875 C 20.5625 -28.796875 20.484375 -28.71875 20.484375 -28.71875 Z M 20.484375 -28.71875 "/></g></g></g><g fill="#222222" fill-opacity="1"><g transform="translate(133.370821, 155.276181)"><g><path d="M 30.640625 -19.765625 C 30.640625 -19.6875 30.640625 -19.6875 30.5625 -19.765625 L 30.5625 -19.84375 C 29.28125 -22 27.59375 -19.046875 26.875 -18 C 25.515625 -16.15625 24.234375 -14.40625 22.796875 -12.71875 C 21.59375 -11.28125 20.3125 -9.84375 19.359375 -8.3125 C 19.359375 -8.15625 19.203125 -7.765625 19.203125 -7.765625 C 18.875 -7.28125 18.40625 -6.875 18 -6.40625 C 17.28125 -5.6875 16.5625 -4.875 15.765625 -4.15625 C 14.5625 -3.046875 7.84375 3.28125 6.953125 -0.796875 C 6.484375 -2.796875 7.125 -5.28125 7.515625 -7.203125 C 7.765625 -8.234375 8 -9.203125 8.15625 -10.234375 C 8.3125 -11.046875 8.078125 -11.84375 8.484375 -12.640625 C 8.71875 -13.125 8.796875 -13.046875 9.359375 -13.203125 L 10.71875 -13.6875 C 11.59375 -14 12.484375 -14.3125 13.28125 -14.796875 C 14.484375 -15.515625 15.59375 -16.40625 16.640625 -17.28125 C 19.125 -19.359375 21.765625 -21.84375 22.796875 -24.953125 C 23.359375 -26.71875 23.4375 -28.640625 22.3125 -30.15625 C 21.28125 -31.515625 19.515625 -32.234375 17.921875 -32.5625 C 13.59375 -33.359375 10.3125 -30.875 7.84375 -27.59375 C 4.796875 -23.84375 2.640625 -19.203125 1.59375 -14.484375 C 1.046875 -12.15625 0.71875 -9.84375 0.3125 -7.4375 C -0.078125 -5.046875 -0.3125 -2.796875 0.953125 -0.5625 C 0.875 -1.359375 0.71875 -2.078125 0.71875 -2.796875 C 0.71875 -3.203125 0.875 -3.59375 0.875 -3.921875 C 0.875 -4.078125 0.71875 -4.5625 0.71875 -4.796875 C 0.71875 -5.515625 0.875 -6.078125 1.046875 -6.796875 C 1.125 -7.515625 1.046875 -8.234375 1.125 -8.953125 C 1.203125 -9.765625 1.515625 -10.40625 1.84375 -11.125 C 2.078125 -11.765625 2.15625 -12.3125 2.40625 -12.953125 C 2.640625 -13.515625 2.796875 -14.15625 3.046875 -14.796875 C 3.125 -15.203125 3.515625 -15.6875 3.765625 -16.15625 C 3.515625 -15.4375 3.046875 -14.796875 2.875 -14.15625 C 2.640625 -13.203125 2.796875 -12.15625 2.71875 -11.203125 C 2.5625 -10.15625 2.234375 -9.125 2.078125 -8 C 1.921875 -6.953125 1.4375 -6 1.28125 -4.953125 C 1.125 -4 0.796875 -3.28125 0.875 -2.3125 C 0.875 -1.765625 0.953125 -1.203125 1.046875 -0.71875 C 1.125 -0.078125 1.515625 0.3125 1.921875 0.796875 C 3.28125 2.40625 5.125 3.6875 7.203125 4.234375 C 8.640625 4.640625 9.921875 4.5625 11.28125 3.84375 C 13.203125 2.796875 14.875 1.203125 16.3125 -0.3125 C 17.6875 -1.84375 18.71875 -3.515625 19.921875 -5.125 C 21.046875 -6.5625 22.40625 -7.921875 23.515625 -9.359375 L 27.84375 -14.953125 L 30.3125 -18.234375 C 30.71875 -18.71875 30.953125 -19.125 30.640625 -19.765625 Z M 10.796875 -18.875 C 10.875 -19.046875 10.875 -19.125 10.875 -19.125 C 12.078125 -21.6875 12.953125 -24.40625 14.640625 -26.875 L 16.078125 -28.796875 C 16.40625 -29.203125 16.953125 -29.921875 17.515625 -30.078125 C 18.71875 -30.3125 19.046875 -28.234375 18.953125 -27.4375 L 18.640625 -25.765625 C 18.5625 -25.28125 18.71875 -24.953125 18.640625 -24.5625 C 18.484375 -24.078125 18.078125 -23.84375 17.84375 -23.4375 L 16.484375 -21.6875 C 14.640625 -19.515625 12.3125 -17.6875 9.765625 -16.3125 C 10.15625 -17.203125 10.40625 -18.078125 10.796875 -18.875 Z M 10.796875 -18.875 "/></g></g></g><g fill="#222222" fill-opacity="1"><g transform="translate(160.248417, 155.276181)"><g><path d="M 40.640625 -19.59375 L 40.640625 -19.6875 L 40.5625 -19.6875 C 39.59375 -21.046875 38.15625 -18.875 37.203125 -18.15625 C 35.125 -16.484375 32.953125 -15.125 30.71875 -13.6875 C 30.796875 -14.078125 30.796875 -18.40625 30.5625 -18.234375 C 30.40625 -18 30.40625 -17.765625 30.40625 -17.515625 C 30.234375 -20.078125 29.84375 -23.359375 26.71875 -24.3125 C 25.515625 -24.71875 24.40625 -24.40625 23.28125 -23.921875 C 20.15625 -22.484375 17.515625 -19.4375 15.28125 -17.046875 C 13.359375 -14.953125 11.59375 -12.71875 10 -10.40625 C 10.875 -11.515625 11.84375 -12.5625 12.640625 -13.4375 C 10.875 -11.203125 9.203125 -8.796875 7.921875 -6.234375 L 8.234375 -7.515625 L 8.078125 -7.125 C 8.71875 -11.4375 9.515625 -15.765625 10.484375 -20 C 10.875 -22 11.125 -24.953125 12.15625 -26.71875 C 12.953125 -28.15625 15.4375 -28.3125 16.3125 -29.765625 C 16.3125 -29.765625 16.078125 -29.59375 15.765625 -29.4375 C 16.875 -30.3125 17.921875 -31.28125 18.953125 -32.15625 C 18.953125 -32.078125 18.15625 -31.28125 18.15625 -31.28125 C 18.71875 -30.875 23.203125 -35.59375 23.59375 -36.078125 C 25.515625 -38.078125 27.359375 -40.234375 28.796875 -42.71875 C 30.078125 -44.953125 31.515625 -47.125 32.71875 -49.359375 C 33.515625 -50.640625 34.15625 -51.921875 34.796875 -53.28125 C 35.203125 -54.234375 36.3125 -56.234375 36.078125 -57.359375 C 36 -57.4375 35.921875 -57.4375 35.84375 -57.359375 L 36.3125 -59.28125 C 36.3125 -59.28125 36.15625 -57.765625 36.078125 -57.6875 C 36.484375 -58 36.40625 -59.6875 36.40625 -59.6875 C 37.359375 -64.234375 37.359375 -73.359375 30.875 -73.6875 C 27.515625 -73.765625 24.796875 -70.71875 22.875 -68.40625 C 20.640625 -65.59375 18.71875 -62.484375 17.046875 -59.28125 C 13.921875 -53.765625 11.515625 -47.84375 9.125 -42 C 6.40625 -35.28125 4 -28.3125 2.40625 -21.28125 C 1.359375 -17.125 0.5625 -12.953125 0.234375 -8.71875 C 0.15625 -7.6875 -0.5625 -2 0.875 -1.4375 C 0.875 -1.359375 0.875 -1.6875 0.796875 -2.15625 C 0.875 -1.765625 1.046875 -1.515625 1.203125 -1.203125 C 1.125 -1.203125 1.59375 0 1.59375 0 C 2 0.71875 2.5625 1.4375 3.28125 1.921875 C 4.640625 2.875 6.484375 3.359375 7.4375 1.765625 C 8.234375 0.484375 8.5625 -1.6875 9.28125 -3.125 C 9.515625 -3.765625 9.84375 -4.40625 10.15625 -5.046875 C 10.078125 -5.4375 10.15625 -5.765625 10.484375 -6 C 10.640625 -5.921875 10.796875 -6 11.046875 -6.15625 C 12.234375 -7.515625 12.953125 -9.359375 13.921875 -10.953125 C 14.3125 -11.59375 19.515625 -18.484375 20.15625 -18.796875 C 20.078125 -18.796875 20 -18.796875 19.921875 -18.71875 C 20.40625 -19.203125 20.796875 -19.515625 21.359375 -19.921875 C 21.4375 -19.765625 20.953125 -19.515625 21.046875 -19.4375 C 21.046875 -19.4375 23.921875 -20.484375 24.234375 -20.484375 C 25.28125 -20.234375 25.125 -18.5625 25.046875 -17.765625 C 24.875 -16.5625 24.3125 -15.4375 23.765625 -14.40625 C 23.4375 -13.765625 22.875 -13.046875 22.71875 -12.40625 C 22.71875 -12.3125 22.234375 -11.046875 22.71875 -11.59375 L 22.484375 -11.203125 C 22.234375 -10.796875 20.71875 -8.796875 20.40625 -8.5625 C 19.046875 -7.28125 18 -5.765625 16.71875 -4.484375 C 15.125 -2.875 11.515625 -2.15625 13.921875 0.796875 C 18.234375 6.078125 24.875 -2.234375 27.203125 -5.59375 C 28.484375 -7.515625 30.078125 -9.203125 31.4375 -10.796875 C 31.921875 -11.359375 32.796875 -12.078125 33.4375 -12.484375 C 33.6875 -12.640625 34.078125 -12.640625 34.3125 -12.875 C 34.953125 -13.515625 35.046875 -13.84375 35.59375 -14.40625 C 36.640625 -15.4375 38.40625 -15.765625 39.359375 -16.953125 C 39.515625 -17.203125 39.515625 -17.359375 39.28125 -17.59375 C 39.359375 -17.765625 39.515625 -17.765625 39.6875 -17.6875 L 40.15625 -17.921875 C 40.5625 -18.484375 41.125 -18.796875 40.640625 -19.59375 Z M 31.6875 -70.078125 C 34.234375 -70.078125 33.921875 -63.359375 33.84375 -61.921875 C 33.6875 -59.59375 33.125 -57.28125 32.3125 -55.125 C 31.765625 -53.4375 31.125 -50.875 30.078125 -49.515625 C 28 -46.796875 25.6875 -43.6875 23.4375 -40.875 C 20.5625 -37.28125 17.125 -34.234375 13.515625 -31.359375 C 14.953125 -36.15625 16.640625 -40.953125 18.484375 -45.6875 C 18.953125 -46.796875 23.59375 -58.953125 24.234375 -59.515625 C 24.078125 -59.4375 23.921875 -59.28125 23.765625 -59.046875 C 25.125 -62 26.5625 -64.953125 28.640625 -67.59375 L 27.59375 -65.6875 C 28.40625 -66.640625 31.515625 -70.15625 31.6875 -69.921875 C 31.59375 -70.078125 31.046875 -69.921875 30.796875 -69.765625 C 31.046875 -70 31.359375 -70.078125 31.6875 -70.078125 Z M 15.921875 -55.4375 C 17.765625 -58.953125 19.6875 -62.234375 22.15625 -65.4375 C 23.765625 -67.59375 26.078125 -70.15625 28.953125 -71.125 C 26.15625 -70.15625 24.234375 -67.6875 22.5625 -65.359375 C 20.234375 -62.15625 18.3125 -58.796875 16.3125 -55.359375 C 13.28125 -50.15625 10.875 -44.640625 8.796875 -39.125 C 10.796875 -44.640625 13.125 -50.15625 15.921875 -55.4375 Z M 21.203125 -7.84375 C 19.84375 -6 17.84375 -3.6875 15.84375 -2.5625 C 16.875 -3.203125 17.6875 -4.40625 18.71875 -5.59375 C 20.15625 -7.4375 21.515625 -9.28125 22.875 -11.203125 C 23.515625 -12.078125 25.359375 -15.359375 25.921875 -17.921875 C 25.359375 -14.3125 23.125 -10.796875 21.203125 -7.84375 Z M 13.125 -31.046875 L 13.125 -31.203125 L 13.203125 -31.359375 C 13.203125 -31.4375 13.28125 -31.515625 13.28125 -31.6875 C 13.28125 -31.765625 13.28125 -31.84375 13.359375 -31.921875 L 13.359375 -32 L 14.40625 -35.28125 L 14 -33.84375 C 13.84375 -33.203125 13.59375 -31.4375 13.125 -31.046875 Z M 16.71875 -41.84375 C 18 -45.203125 19.28125 -48.5625 20.640625 -51.84375 Z M 8.3125 -7.59375 L 10 -10.40625 C 9.359375 -9.515625 8.71875 -8.5625 8.3125 -7.59375 Z M 13.125 -31.046875 L 13.125 -31.203125 L 13.203125 -31.28125 C 13.203125 -31.203125 13.125 -31.125 13.125 -31.046875 Z M 14.953125 -16.3125 C 14.953125 -16.234375 14.875 -16.234375 14.875 -16.234375 Z M 14.953125 -16.3125 "/></g></g></g><g fill="#222222" fill-opacity="1"><g transform="translate(197.205032, 155.276181)"><g><path d="M 30.640625 -19.765625 C 30.640625 -19.6875 30.640625 -19.6875 30.5625 -19.765625 L 30.5625 -19.84375 C 29.28125 -22 27.59375 -19.046875 26.875 -18 C 25.515625 -16.15625 24.234375 -14.40625 22.796875 -12.71875 C 21.59375 -11.28125 20.3125 -9.84375 19.359375 -8.3125 C 19.359375 -8.15625 19.203125 -7.765625 19.203125 -7.765625 C 18.875 -7.28125 18.40625 -6.875 18 -6.40625 C 17.28125 -5.6875 16.5625 -4.875 15.765625 -4.15625 C 14.5625 -3.046875 7.84375 3.28125 6.953125 -0.796875 C 6.484375 -2.796875 7.125 -5.28125 7.515625 -7.203125 C 7.765625 -8.234375 8 -9.203125 8.15625 -10.234375 C 8.3125 -11.046875 8.078125 -11.84375 8.484375 -12.640625 C 8.71875 -13.125 8.796875 -13.046875 9.359375 -13.203125 L 10.71875 -13.6875 C 11.59375 -14 12.484375 -14.3125 13.28125 -14.796875 C 14.484375 -15.515625 15.59375 -16.40625 16.640625 -17.28125 C 19.125 -19.359375 21.765625 -21.84375 22.796875 -24.953125 C 23.359375 -26.71875 23.4375 -28.640625 22.3125 -30.15625 C 21.28125 -31.515625 19.515625 -32.234375 17.921875 -32.5625 C 13.59375 -33.359375 10.3125 -30.875 7.84375 -27.59375 C 4.796875 -23.84375 2.640625 -19.203125 1.59375 -14.484375 C 1.046875 -12.15625 0.71875 -9.84375 0.3125 -7.4375 C -0.078125 -5.046875 -0.3125 -2.796875 0.953125 -0.5625 C 0.875 -1.359375 0.71875 -2.078125 0.71875 -2.796875 C 0.71875 -3.203125 0.875 -3.59375 0.875 -3.921875 C 0.875 -4.078125 0.71875 -4.5625 0.71875 -4.796875 C 0.71875 -5.515625 0.875 -6.078125 1.046875 -6.796875 C 1.125 -7.515625 1.046875 -8.234375 1.125 -8.953125 C 1.203125 -9.765625 1.515625 -10.40625 1.84375 -11.125 C 2.078125 -11.765625 2.15625 -12.3125 2.40625 -12.953125 C 2.640625 -13.515625 2.796875 -14.15625 3.046875 -14.796875 C 3.125 -15.203125 3.515625 -15.6875 3.765625 -16.15625 C 3.515625 -15.4375 3.046875 -14.796875 2.875 -14.15625 C 2.640625 -13.203125 2.796875 -12.15625 2.71875 -11.203125 C 2.5625 -10.15625 2.234375 -9.125 2.078125 -8 C 1.921875 -6.953125 1.4375 -6 1.28125 -4.953125 C 1.125 -4 0.796875 -3.28125 0.875 -2.3125 C 0.875 -1.765625 0.953125 -1.203125 1.046875 -0.71875 C 1.125 -0.078125 1.515625 0.3125 1.921875 0.796875 C 3.28125 2.40625 5.125 3.6875 7.203125 4.234375 C 8.640625 4.640625 9.921875 4.5625 11.28125 3.84375 C 13.203125 2.796875 14.875 1.203125 16.3125 -0.3125 C 17.6875 -1.84375 18.71875 -3.515625 19.921875 -5.125 C 21.046875 -6.5625 22.40625 -7.921875 23.515625 -9.359375 L 27.84375 -14.953125 L 30.3125 -18.234375 C 30.71875 -18.71875 30.953125 -19.125 30.640625 -19.765625 Z M 10.796875 -18.875 C 10.875 -19.046875 10.875 -19.125 10.875 -19.125 C 12.078125 -21.6875 12.953125 -24.40625 14.640625 -26.875 L 16.078125 -28.796875 C 16.40625 -29.203125 16.953125 -29.921875 17.515625 -30.078125 C 18.71875 -30.3125 19.046875 -28.234375 18.953125 -27.4375 L 18.640625 -25.765625 C 18.5625 -25.28125 18.71875 -24.953125 18.640625 -24.5625 C 18.484375 -24.078125 18.078125 -23.84375 17.84375 -23.4375 L 16.484375 -21.6875 C 14.640625 -19.515625 12.3125 -17.6875 9.765625 -16.3125 C 10.15625 -17.203125 10.40625 -18.078125 10.796875 -18.875 Z M 10.796875 -18.875 "/></g></g></g><g fill="#222222" fill-opacity="1"><g transform="translate(224.082624, 155.276181)"><g><path d="M 28.953125 -14.796875 C 29.6875 -15.84375 32.5625 -18.875 31.359375 -20.234375 C 29.765625 -21.84375 25.59375 -15.203125 24.953125 -14.40625 C 23.6875 -12.71875 22.3125 -11.125 21.046875 -9.515625 C 20.3125 -8.640625 19.59375 -7.765625 18.796875 -6.953125 C 18.640625 -6.796875 17.125 -4.875 17.28125 -4.875 C 17.515625 -4.953125 17.765625 -5.125 18 -5.28125 C 16.640625 -3.84375 14.796875 -2.5625 13.125 -1.28125 C 12 -0.484375 9.84375 1.28125 8.484375 0.3125 C 7.921875 0 7.765625 -0.796875 7.59375 -1.359375 C 7.046875 -3.84375 7.4375 -6.796875 7.84375 -9.359375 C 8.71875 -14.71875 10.484375 -20 12.640625 -25.046875 C 13.6875 -27.359375 14.71875 -29.6875 16.5625 -31.4375 C 16.71875 -31.59375 17.046875 -31.28125 17.125 -31.359375 C 17.28125 -31.4375 16.640625 -31.6875 16.5625 -31.59375 C 15.6875 -31.125 15.125 -30.15625 14.640625 -29.28125 C 13.203125 -26.953125 12.078125 -24.40625 11.125 -21.84375 C 11.84375 -23.84375 12.640625 -25.84375 13.59375 -27.84375 C 14.15625 -28.875 14.796875 -30.5625 15.84375 -31.359375 C 18.5625 -33.515625 17.515625 -26.40625 17.203125 -25.359375 C 17.203125 -25.4375 17.515625 -27.203125 17.4375 -27.203125 C 17.28125 -27.203125 16.15625 -23.125 16.15625 -23.125 L 16.5625 -23.4375 C 16.15625 -22.796875 15.359375 -22.3125 16.40625 -21.59375 C 17.6875 -20.71875 20.15625 -22.234375 20.71875 -23.359375 C 21.28125 -24.5625 21.4375 -26.15625 21.515625 -27.359375 C 21.6875 -29.4375 21.125 -30.640625 20.40625 -32.234375 C 19.59375 -33.921875 18.875 -34.953125 16.71875 -35.28125 C 14.953125 -35.515625 13.359375 -34.796875 12 -33.765625 C 10 -32.3125 8.484375 -30.484375 7.203125 -28.40625 C 6.875 -27.84375 4 -22 4.078125 -21.921875 L 4.40625 -22.3125 C 4 -21.4375 3.765625 -20.5625 3.4375 -19.765625 C 3.359375 -19.765625 3.59375 -20.484375 3.515625 -20.484375 C 3.046875 -20.5625 1.59375 -16.15625 1.515625 -15.765625 C 0.953125 -14.078125 0.5625 -12.40625 0.484375 -10.640625 C 0.40625 -8.71875 0.078125 -6.796875 0 -4.796875 C 0 -3.765625 0 -2.640625 0.15625 -1.59375 C 0.15625 -1.28125 0.796875 0.40625 0.796875 -0.078125 L 1.203125 1.28125 C 1.125 1.203125 0.796875 0.40625 0.796875 0.40625 C 0.40625 0.875 2.5625 4 3.046875 4.484375 C 3.6875 5.203125 4.640625 5.515625 5.59375 5.6875 C 8.796875 6.078125 11.84375 4.234375 14.15625 2.3125 C 18.15625 -1.046875 22.078125 -5.203125 25.046875 -9.515625 C 26.234375 -11.359375 27.59375 -13.046875 28.953125 -14.796875 Z M 5.515625 -20.640625 C 5.359375 -19.84375 5.125 -18.953125 4.796875 -18.234375 C 4.5625 -17.6875 3.84375 -17.203125 3.765625 -16.796875 C 3.921875 -18.15625 4.953125 -19.515625 5.59375 -21.046875 C 5.59375 -20.875 5.515625 -20.71875 5.515625 -20.640625 Z M 2.5625 -11.28125 C 2.234375 -10.71875 2.234375 -9.6875 2.234375 -8.796875 C 2.15625 -9.765625 2.15625 -10.796875 2.484375 -11.765625 C 2.484375 -11.765625 2.71875 -11.4375 2.5625 -11.28125 Z M 8.3125 -13.203125 C 8.640625 -14.484375 9.046875 -15.765625 9.4375 -17.046875 Z M 2.71875 -12.796875 C 2.640625 -12.5625 2.484375 -12.234375 2.484375 -12.078125 C 2.484375 -12.484375 2.484375 -12.875 2.875 -13.046875 Z M 9.765625 -18 C 9.6875 -17.921875 9.6875 -17.921875 9.6875 -17.84375 C 9.6875 -18 9.6875 -18.15625 9.765625 -18.3125 Z M 9.765625 -18 "/></g></g></g><g fill="#222222" fill-opacity="1"><g transform="translate(251.84013, 155.276181)"><g><path d="M 40.71875 -19.28125 C 40.640625 -21.046875 39.203125 -19.515625 38.71875 -18.875 C 37.6875 -17.359375 36.71875 -15.765625 35.765625 -14.234375 C 33.59375 -10.953125 31.4375 -7.6875 28.953125 -4.5625 C 20.71875 5.59375 26.484375 -12.484375 25.84375 -12.3125 C 25.515625 -12.234375 25.28125 -11.046875 25.203125 -10.796875 C 25.84375 -13.6875 27.046875 -17.125 28.5625 -19.921875 C 29.4375 -21.6875 30.484375 -23.125 28.875 -25.046875 C 25.921875 -28.640625 22.484375 -25.359375 20.5625 -22.875 C 19.765625 -25.921875 18.15625 -30.40625 14.234375 -30.40625 C 12.484375 -30.40625 11.4375 -29.515625 10.234375 -28.484375 C 9.515625 -28 8.953125 -27.921875 8.3125 -27.359375 C 7.28125 -26.640625 6.5625 -25.515625 5.84375 -24.5625 C 3.125 -20.5625 1.203125 -15.515625 0.3125 -10.875 C -0.078125 -8.640625 -0.234375 -6.15625 0.40625 -3.921875 C 0.796875 -2.640625 2.234375 0.234375 4.078125 0 C 4.15625 0 4 -0.078125 3.765625 -0.234375 C 4.875 0.078125 6.15625 -0.078125 7.125 -0.71875 C 7.203125 -0.5625 6.234375 -0.15625 6.234375 -0.15625 C 7.125 1.203125 13.6875 -6.71875 14.15625 -7.4375 C 15.203125 -8.875 15.921875 -10.40625 16.875 -11.921875 C 17.59375 -13.046875 18.71875 -14.484375 19.515625 -15.6875 C 19.4375 -15.125 19.4375 -14.40625 19.4375 -14.40625 C 18 -9.84375 16.640625 -4.875 18.5625 -0.15625 C 19.4375 2.234375 21.59375 4.484375 24.3125 4 C 26.71875 3.59375 28.71875 1.28125 30.15625 -0.5625 C 31.921875 -2.640625 33.4375 -4.953125 34.953125 -7.359375 C 36.234375 -9.515625 37.4375 -11.6875 38.484375 -14.078125 C 39.125 -15.59375 40.875 -17.4375 40.71875 -19.28125 Z M 17.765625 -18.71875 C 17.359375 -18.15625 16.953125 -17.59375 16.640625 -17.046875 L 14.5625 -14.078125 C 13.203125 -12.078125 11.765625 -10.15625 10.234375 -8.3125 C 9.84375 -7.765625 7.921875 -5.28125 7.125 -5.515625 C 5.921875 -5.921875 7.203125 -10.078125 7.359375 -10.71875 C 7.59375 -11.84375 11.84375 -24.15625 12.953125 -24.40625 C 11.515625 -24.484375 6.875 -10 6.640625 -8.796875 C 7.28125 -12.71875 8.71875 -16.5625 10.3125 -20.15625 C 11.203125 -22 13.203125 -26.875 15.84375 -26.875 C 17.28125 -26.875 17.59375 -23.921875 17.84375 -22.953125 C 17.765625 -23.125 17.046875 -25.4375 16.953125 -25.359375 C 16.5625 -25.046875 18.15625 -20.640625 18.15625 -20 C 18.15625 -19.359375 18.15625 -19.359375 17.765625 -18.71875 Z M 19.59375 -14.796875 C 19.59375 -14.796875 19.84375 -15.921875 19.921875 -16.15625 L 20.3125 -16.71875 Z M 18.40625 -19.765625 L 18.40625 -20.5625 C 18.640625 -20.234375 18.640625 -20 18.40625 -19.765625 Z M 18.40625 -19.765625 "/></g></g></g><g fill="#222222" fill-opacity="1"><g transform="translate(74.016727, 237.026176)"><g><path d="M 54.234375 -58.640625 C 53.921875 -58.3125 51.6875 -58.15625 51.203125 -58.078125 C 48.71875 -57.59375 46.234375 -57.28125 43.84375 -56.953125 C 39.046875 -56.3125 34 -56.40625 29.28125 -55.59375 C 29.359375 -58.078125 25.203125 -62.078125 23.359375 -59.046875 C 22.796875 -58.15625 22.640625 -56.953125 22.3125 -56 C 22 -54.953125 22 -55.125 21.125 -54.875 C 20.484375 -54.640625 19.515625 -54.640625 18.875 -54.640625 C 17.765625 -54.484375 16.71875 -54.484375 15.59375 -54.40625 C 14.15625 -54.3125 12.5625 -54.40625 12 -52.796875 C 10.640625 -48.5625 17.203125 -48.40625 19.6875 -48.5625 C 19.28125 -47.4375 18.953125 -46.3125 18.484375 -45.125 C 18.40625 -44.796875 17.4375 -41.921875 17.59375 -41.921875 L 18.078125 -42.5625 C 16.953125 -39.515625 15.046875 -36.234375 13.6875 -33.046875 C 12.875 -31.125 12.234375 -29.28125 11.59375 -27.359375 C 11.125 -25.84375 11.125 -25.6875 9.515625 -25.28125 L 7.125 -24.875 C 6.5625 -24.796875 5.84375 -24.71875 5.359375 -24.234375 C 3.28125 -22 7.28125 -20.234375 9.125 -20.3125 C 8.640625 -19.046875 3.203125 -4.953125 3.125 -4.953125 C 3.125 -4.875 3.6875 -6 4.3125 -7.59375 L 1.765625 -1.125 C 1.765625 -1.28125 1.84375 -1.4375 1.84375 -1.515625 C 1.515625 -1.515625 0.3125 1.84375 0.5625 1.84375 L 0.875 1.515625 C 0.484375 2.484375 -0.15625 2.796875 0 4.15625 C 0.234375 5.59375 1.203125 6.796875 2.40625 7.59375 C 3.4375 8.3125 5.6875 9.59375 6.953125 9.203125 C 8.15625 8.796875 7.28125 8.875 7.765625 8.3125 C 9.6875 6.15625 10.078125 2.640625 11.046875 -0.234375 C 11.28125 -1.046875 14.3125 -10.484375 14.234375 -10.5625 L 13.921875 -10.234375 C 14.15625 -10.875 14.40625 -11.6875 14.71875 -12.40625 C 14.796875 -12.3125 14.484375 -11.765625 14.640625 -11.765625 C 15.125 -11.6875 16.953125 -17.203125 17.125 -17.59375 C 17.515625 -18.796875 17.4375 -20.484375 18 -21.59375 C 18.5625 -22.640625 19.359375 -22.5625 20.484375 -22.640625 C 21.515625 -22.71875 22.234375 -23.125 22.875 -23.4375 C 23.84375 -23.84375 25.046875 -23.6875 26 -23.921875 C 27.28125 -24.234375 28.484375 -24.40625 29.765625 -24.71875 C 31.125 -24.953125 31.59375 -25.515625 32.5625 -25.765625 C 33.59375 -26 36.484375 -25.84375 36.796875 -27.28125 C 37.125 -28.796875 35.921875 -27.84375 35.765625 -27.84375 C 33.203125 -27.6875 30.640625 -28.078125 28.078125 -27.84375 C 25.359375 -27.6875 22.71875 -27.4375 20 -27.203125 C 20 -27.28125 20.3125 -28.953125 19.921875 -28.234375 L 20.15625 -28.875 L 20.15625 -28.640625 C 20.3125 -28.640625 21.28125 -31.765625 21.59375 -32.234375 C 22.71875 -34.3125 23.515625 -36.796875 24.234375 -39.125 C 24.953125 -41.515625 25.59375 -43.921875 26.3125 -46.234375 L 26.953125 -48 C 27.359375 -49.203125 27.125 -49.046875 28.15625 -49.359375 C 29.125 -49.59375 30.484375 -49.6875 31.4375 -49.765625 C 35.6875 -50.078125 39.59375 -51.203125 43.84375 -52.3125 C 44.875 -52.5625 46.71875 -52.953125 47.59375 -53.6875 C 48.40625 -54.3125 48.234375 -54.484375 49.28125 -54.796875 C 49.84375 -54.953125 55.59375 -57.84375 54.234375 -58.640625 Z M 16.234375 -21.046875 C 15.203125 -17.765625 14.078125 -14.40625 12.875 -11.125 C 11.84375 -8.484375 10.40625 -5.921875 9.4375 -3.28125 C 11.4375 -9.28125 14 -15.203125 16.234375 -21.203125 L 16.234375 -21.125 C 16.15625 -20.796875 16.15625 -20.875 16.234375 -21.046875 Z M 9.4375 -20.40625 L 8.40625 -17.921875 C 8.71875 -18.875 9.203125 -20.3125 9.4375 -20.40625 Z M 16.3125 -21.4375 L 16.3125 -21.359375 C 16.234375 -21.28125 16.234375 -21.28125 16.234375 -21.203125 C 16.234375 -21.28125 16.234375 -21.359375 16.3125 -21.4375 Z M 16.3125 -21.4375 C 16.3125 -21.515625 16.3125 -21.59375 16.40625 -21.6875 L 16.40625 -21.59375 C 16.40625 -21.59375 16.3125 -21.515625 16.3125 -21.4375 Z M 16.3125 -21.4375 "/></g></g></g><g fill="#222222" fill-opacity="1"><g transform="translate(110.573342, 237.026176)"><g><path d="M 30.640625 -19.765625 C 30.640625 -19.6875 30.640625 -19.6875 30.5625 -19.765625 L 30.5625 -19.84375 C 29.28125 -22 27.59375 -19.046875 26.875 -18 C 25.515625 -16.15625 24.234375 -14.40625 22.796875 -12.71875 C 21.59375 -11.28125 20.3125 -9.84375 19.359375 -8.3125 C 19.359375 -8.15625 19.203125 -7.765625 19.203125 -7.765625 C 18.875 -7.28125 18.40625 -6.875 18 -6.40625 C 17.28125 -5.6875 16.5625 -4.875 15.765625 -4.15625 C 14.5625 -3.046875 7.84375 3.28125 6.953125 -0.796875 C 6.484375 -2.796875 7.125 -5.28125 7.515625 -7.203125 C 7.765625 -8.234375 8 -9.203125 8.15625 -10.234375 C 8.3125 -11.046875 8.078125 -11.84375 8.484375 -12.640625 C 8.71875 -13.125 8.796875 -13.046875 9.359375 -13.203125 L 10.71875 -13.6875 C 11.59375 -14 12.484375 -14.3125 13.28125 -14.796875 C 14.484375 -15.515625 15.59375 -16.40625 16.640625 -17.28125 C 19.125 -19.359375 21.765625 -21.84375 22.796875 -24.953125 C 23.359375 -26.71875 23.4375 -28.640625 22.3125 -30.15625 C 21.28125 -31.515625 19.515625 -32.234375 17.921875 -32.5625 C 13.59375 -33.359375 10.3125 -30.875 7.84375 -27.59375 C 4.796875 -23.84375 2.640625 -19.203125 1.59375 -14.484375 C 1.046875 -12.15625 0.71875 -9.84375 0.3125 -7.4375 C -0.078125 -5.046875 -0.3125 -2.796875 0.953125 -0.5625 C 0.875 -1.359375 0.71875 -2.078125 0.71875 -2.796875 C 0.71875 -3.203125 0.875 -3.59375 0.875 -3.921875 C 0.875 -4.078125 0.71875 -4.5625 0.71875 -4.796875 C 0.71875 -5.515625 0.875 -6.078125 1.046875 -6.796875 C 1.125 -7.515625 1.046875 -8.234375 1.125 -8.953125 C 1.203125 -9.765625 1.515625 -10.40625 1.84375 -11.125 C 2.078125 -11.765625 2.15625 -12.3125 2.40625 -12.953125 C 2.640625 -13.515625 2.796875 -14.15625 3.046875 -14.796875 C 3.125 -15.203125 3.515625 -15.6875 3.765625 -16.15625 C 3.515625 -15.4375 3.046875 -14.796875 2.875 -14.15625 C 2.640625 -13.203125 2.796875 -12.15625 2.71875 -11.203125 C 2.5625 -10.15625 2.234375 -9.125 2.078125 -8 C 1.921875 -6.953125 1.4375 -6 1.28125 -4.953125 C 1.125 -4 0.796875 -3.28125 0.875 -2.3125 C 0.875 -1.765625 0.953125 -1.203125 1.046875 -0.71875 C 1.125 -0.078125 1.515625 0.3125 1.921875 0.796875 C 3.28125 2.40625 5.125 3.6875 7.203125 4.234375 C 8.640625 4.640625 9.921875 4.5625 11.28125 3.84375 C 13.203125 2.796875 14.875 1.203125 16.3125 -0.3125 C 17.6875 -1.84375 18.71875 -3.515625 19.921875 -5.125 C 21.046875 -6.5625 22.40625 -7.921875 23.515625 -9.359375 L 27.84375 -14.953125 L 30.3125 -18.234375 C 30.71875 -18.71875 30.953125 -19.125 30.640625 -19.765625 Z M 10.796875 -18.875 C 10.875 -19.046875 10.875 -19.125 10.875 -19.125 C 12.078125 -21.6875 12.953125 -24.40625 14.640625 -26.875 L 16.078125 -28.796875 C 16.40625 -29.203125 16.953125 -29.921875 17.515625 -30.078125 C 18.71875 -30.3125 19.046875 -28.234375 18.953125 -27.4375 L 18.640625 -25.765625 C 18.5625 -25.28125 18.71875 -24.953125 18.640625 -24.5625 C 18.484375 -24.078125 18.078125 -23.84375 17.84375 -23.4375 L 16.484375 -21.6875 C 14.640625 -19.515625 12.3125 -17.6875 9.765625 -16.3125 C 10.15625 -17.203125 10.40625 -18.078125 10.796875 -18.875 Z M 10.796875 -18.875 "/></g></g></g><g fill="#222222" fill-opacity="1"><g transform="translate(137.130935, 237.026176)"><g><path d="M 32.796875 -19.4375 C 32.3125 -21.515625 30.40625 -18.71875 30 -18.234375 L 25.59375 -12.3125 L 21.28125 -6.640625 L 18.953125 -3.6875 C 18.71875 -3.359375 16.953125 -1.125 17.125 -1.125 C 17.28125 -1.28125 17.515625 -1.28125 17.765625 -1.515625 C 16.5625 -0.234375 12.15625 3.765625 11.359375 2.796875 C 10.71875 2 12.484375 -1.359375 12.71875 -2.15625 C 13.59375 -4.484375 14.40625 -6.875 15.359375 -9.125 C 16.40625 -11.4375 17.59375 -13.765625 18.5625 -16.078125 C 19.515625 -18.5625 18.078125 -19.4375 15.765625 -20 C 14.71875 -20.234375 13.4375 -20.234375 12.234375 -20.40625 C 12.234375 -20.3125 12.3125 -20.3125 12.3125 -20.3125 C 13.359375 -20.15625 14.875 -20.078125 16.15625 -19.6875 C 14.234375 -20.234375 11.84375 -20 10.3125 -20.40625 C 9.28125 -20.640625 8.640625 -20.640625 8.796875 -21.84375 C 8.953125 -23.4375 10.640625 -25.125 11.203125 -26.640625 C 11.203125 -26.5625 10.640625 -25.125 10.71875 -25.125 C 11.125 -24.953125 11.765625 -27.203125 11.765625 -27.515625 C 11.6875 -27.921875 10.71875 -29.125 10.640625 -28.640625 L 10.796875 -28.40625 C 6.953125 -31.046875 2.40625 -25.59375 3.203125 -21.6875 C 3.359375 -21.125 3.6875 -20.796875 3.921875 -20.15625 C 4.078125 -19.6875 3.921875 -19.125 4.40625 -18.484375 C 6.078125 -16.40625 9.125 -16.3125 11.515625 -16.796875 C 11.125 -16.234375 6.875 -7.28125 7.125 -7.203125 L 6.5625 -5.203125 C 6.484375 -5.28125 6.796875 -5.921875 6.640625 -5.921875 C 6.078125 -6 4.953125 -1.359375 4.875 -0.953125 C 4.5625 0.953125 4.640625 2.640625 5.4375 4.40625 C 5.921875 5.515625 6.484375 6.484375 7.515625 7.125 C 8.484375 7.765625 9.6875 8.078125 10.796875 7.84375 C 11.203125 7.6875 12.71875 6.640625 12.3125 6.71875 L 12.875 6.484375 C 12.796875 6.5625 12.71875 6.640625 12.71875 6.71875 C 12.953125 6.796875 16.640625 3.84375 17.125 3.515625 C 19.6875 1.359375 21.765625 -1.28125 23.6875 -3.921875 C 25.59375 -6.640625 27.59375 -9.359375 29.4375 -12.078125 C 30.3125 -13.359375 31.125 -14.640625 31.765625 -16 C 32.234375 -16.953125 33.046875 -18.3125 32.796875 -19.4375 Z M 8.875 -9.84375 C 9.4375 -11.28125 10.078125 -12.640625 10.796875 -14 C 10.953125 -14.234375 12.078125 -17.125 12.640625 -17.28125 C 12.234375 -17.046875 10.5625 -13.125 10.15625 -12.40625 L 8.640625 -8.875 C 7.84375 -6.953125 6.953125 -4.953125 6.40625 -2.875 C 6.953125 -5.28125 7.921875 -7.59375 8.875 -9.84375 Z M 6.953125 5.515625 C 7.4375 6.15625 8.078125 6.796875 8.953125 7.125 C 8.234375 6.875 7.59375 6.484375 7.125 6 C 7.203125 6 7.203125 6.078125 7.203125 6.15625 C 6.71875 5.515625 6.078125 4.15625 6 3.921875 C 5.765625 2.953125 5.6875 1.84375 5.765625 0.875 C 5.765625 0.078125 5.84375 -0.5625 6 -1.28125 L 6 -1.203125 C 5.84375 -0.15625 5.765625 0.875 5.84375 2 L 5.84375 2.40625 C 5.765625 2.3125 5.765625 2.234375 5.765625 2.234375 C 5.765625 2.234375 5.765625 2.3125 5.84375 2.484375 L 5.84375 2.5625 L 6.15625 4.234375 L 5.921875 3.203125 C 6.078125 3.6875 6.484375 4.5625 6.875 5.4375 L 6.796875 5.359375 C 6.796875 5.4375 6.875 5.515625 6.953125 5.59375 Z M 9.203125 -20.875 C 9.59375 -20.5625 10.3125 -20.484375 11.046875 -20.40625 C 10.40625 -20.484375 9.84375 -20.640625 9.4375 -20.953125 C 9.4375 -20.953125 8.953125 -21.359375 8.875 -21.515625 C 8.875 -21.359375 9.046875 -20.953125 9.203125 -20.875 Z M 17.59375 -14.640625 L 15.921875 -11.125 L 17.59375 -14.71875 Z M 6.078125 -1.515625 C 6.078125 -1.4375 6 -1.359375 6 -1.28125 L 6 -1.359375 C 6 -1.4375 6.078125 -1.4375 6.078125 -1.515625 Z M 17.6875 -14.875 L 17.6875 -14.796875 L 17.59375 -14.796875 Z M 17.6875 -14.875 L 17.6875 -14.796875 L 17.59375 -14.796875 Z M 6.15625 -2.5625 C 6.15625 -2.640625 6.234375 -2.71875 6.234375 -2.875 C 6.234375 -2.71875 6.15625 -2.640625 6.15625 -2.5625 Z M 6.484375 4.796875 C 6.484375 4.796875 6.5625 4.875 6.5625 4.953125 C 6.5625 4.875 6.484375 4.875 6.484375 4.796875 Z M 8.953125 -21.6875 C 8.875 -21.6875 8.875 -21.59375 8.875 -21.59375 Z M 8.953125 -21.6875 "/></g></g></g><g fill="#222222" fill-opacity="1"><g transform="translate(165.76832, 237.026176)"><g><path d="M 32.796875 -19.4375 C 32.3125 -21.515625 30.40625 -18.71875 30 -18.234375 L 25.59375 -12.3125 L 21.28125 -6.640625 L 18.953125 -3.6875 C 18.71875 -3.359375 16.953125 -1.125 17.125 -1.125 C 17.28125 -1.28125 17.515625 -1.28125 17.765625 -1.515625 C 16.5625 -0.234375 12.15625 3.765625 11.359375 2.796875 C 10.71875 2 12.484375 -1.359375 12.71875 -2.15625 C 13.59375 -4.484375 14.40625 -6.875 15.359375 -9.125 C 16.40625 -11.4375 17.59375 -13.765625 18.5625 -16.078125 C 19.515625 -18.5625 18.078125 -19.4375 15.765625 -20 C 14.71875 -20.234375 13.4375 -20.234375 12.234375 -20.40625 C 12.234375 -20.3125 12.3125 -20.3125 12.3125 -20.3125 C 13.359375 -20.15625 14.875 -20.078125 16.15625 -19.6875 C 14.234375 -20.234375 11.84375 -20 10.3125 -20.40625 C 9.28125 -20.640625 8.640625 -20.640625 8.796875 -21.84375 C 8.953125 -23.4375 10.640625 -25.125 11.203125 -26.640625 C 11.203125 -26.5625 10.640625 -25.125 10.71875 -25.125 C 11.125 -24.953125 11.765625 -27.203125 11.765625 -27.515625 C 11.6875 -27.921875 10.71875 -29.125 10.640625 -28.640625 L 10.796875 -28.40625 C 6.953125 -31.046875 2.40625 -25.59375 3.203125 -21.6875 C 3.359375 -21.125 3.6875 -20.796875 3.921875 -20.15625 C 4.078125 -19.6875 3.921875 -19.125 4.40625 -18.484375 C 6.078125 -16.40625 9.125 -16.3125 11.515625 -16.796875 C 11.125 -16.234375 6.875 -7.28125 7.125 -7.203125 L 6.5625 -5.203125 C 6.484375 -5.28125 6.796875 -5.921875 6.640625 -5.921875 C 6.078125 -6 4.953125 -1.359375 4.875 -0.953125 C 4.5625 0.953125 4.640625 2.640625 5.4375 4.40625 C 5.921875 5.515625 6.484375 6.484375 7.515625 7.125 C 8.484375 7.765625 9.6875 8.078125 10.796875 7.84375 C 11.203125 7.6875 12.71875 6.640625 12.3125 6.71875 L 12.875 6.484375 C 12.796875 6.5625 12.71875 6.640625 12.71875 6.71875 C 12.953125 6.796875 16.640625 3.84375 17.125 3.515625 C 19.6875 1.359375 21.765625 -1.28125 23.6875 -3.921875 C 25.59375 -6.640625 27.59375 -9.359375 29.4375 -12.078125 C 30.3125 -13.359375 31.125 -14.640625 31.765625 -16 C 32.234375 -16.953125 33.046875 -18.3125 32.796875 -19.4375 Z M 8.875 -9.84375 C 9.4375 -11.28125 10.078125 -12.640625 10.796875 -14 C 10.953125 -14.234375 12.078125 -17.125 12.640625 -17.28125 C 12.234375 -17.046875 10.5625 -13.125 10.15625 -12.40625 L 8.640625 -8.875 C 7.84375 -6.953125 6.953125 -4.953125 6.40625 -2.875 C 6.953125 -5.28125 7.921875 -7.59375 8.875 -9.84375 Z M 6.953125 5.515625 C 7.4375 6.15625 8.078125 6.796875 8.953125 7.125 C 8.234375 6.875 7.59375 6.484375 7.125 6 C 7.203125 6 7.203125 6.078125 7.203125 6.15625 C 6.71875 5.515625 6.078125 4.15625 6 3.921875 C 5.765625 2.953125 5.6875 1.84375 5.765625 0.875 C 5.765625 0.078125 5.84375 -0.5625 6 -1.28125 L 6 -1.203125 C 5.84375 -0.15625 5.765625 0.875 5.84375 2 L 5.84375 2.40625 C 5.765625 2.3125 5.765625 2.234375 5.765625 2.234375 C 5.765625 2.234375 5.765625 2.3125 5.84375 2.484375 L 5.84375 2.5625 L 6.15625 4.234375 L 5.921875 3.203125 C 6.078125 3.6875 6.484375 4.5625 6.875 5.4375 L 6.796875 5.359375 C 6.796875 5.4375 6.875 5.515625 6.953125 5.59375 Z M 9.203125 -20.875 C 9.59375 -20.5625 10.3125 -20.484375 11.046875 -20.40625 C 10.40625 -20.484375 9.84375 -20.640625 9.4375 -20.953125 C 9.4375 -20.953125 8.953125 -21.359375 8.875 -21.515625 C 8.875 -21.359375 9.046875 -20.953125 9.203125 -20.875 Z M 17.59375 -14.640625 L 15.921875 -11.125 L 17.59375 -14.71875 Z M 6.078125 -1.515625 C 6.078125 -1.4375 6 -1.359375 6 -1.28125 L 6 -1.359375 C 6 -1.4375 6.078125 -1.4375 6.078125 -1.515625 Z M 17.6875 -14.875 L 17.6875 -14.796875 L 17.59375 -14.796875 Z M 17.6875 -14.875 L 17.6875 -14.796875 L 17.59375 -14.796875 Z M 6.15625 -2.5625 C 6.15625 -2.640625 6.234375 -2.71875 6.234375 -2.875 C 6.234375 -2.71875 6.15625 -2.640625 6.15625 -2.5625 Z M 6.484375 4.796875 C 6.484375 4.796875 6.5625 4.875 6.5625 4.953125 C 6.5625 4.875 6.484375 4.875 6.484375 4.796875 Z M 8.953125 -21.6875 C 8.875 -21.6875 8.875 -21.59375 8.875 -21.59375 Z M 8.953125 -21.6875 "/></g></g></g><g fill="#222222" fill-opacity="1"><g transform="translate(194.405704, 237.026176)"><g><path d="M 30.640625 -19.765625 C 30.640625 -19.6875 30.640625 -19.6875 30.5625 -19.765625 L 30.5625 -19.84375 C 29.28125 -22 27.59375 -19.046875 26.875 -18 C 25.515625 -16.15625 24.234375 -14.40625 22.796875 -12.71875 C 21.59375 -11.28125 20.3125 -9.84375 19.359375 -8.3125 C 19.359375 -8.15625 19.203125 -7.765625 19.203125 -7.765625 C 18.875 -7.28125 18.40625 -6.875 18 -6.40625 C 17.28125 -5.6875 16.5625 -4.875 15.765625 -4.15625 C 14.5625 -3.046875 7.84375 3.28125 6.953125 -0.796875 C 6.484375 -2.796875 7.125 -5.28125 7.515625 -7.203125 C 7.765625 -8.234375 8 -9.203125 8.15625 -10.234375 C 8.3125 -11.046875 8.078125 -11.84375 8.484375 -12.640625 C 8.71875 -13.125 8.796875 -13.046875 9.359375 -13.203125 L 10.71875 -13.6875 C 11.59375 -14 12.484375 -14.3125 13.28125 -14.796875 C 14.484375 -15.515625 15.59375 -16.40625 16.640625 -17.28125 C 19.125 -19.359375 21.765625 -21.84375 22.796875 -24.953125 C 23.359375 -26.71875 23.4375 -28.640625 22.3125 -30.15625 C 21.28125 -31.515625 19.515625 -32.234375 17.921875 -32.5625 C 13.59375 -33.359375 10.3125 -30.875 7.84375 -27.59375 C 4.796875 -23.84375 2.640625 -19.203125 1.59375 -14.484375 C 1.046875 -12.15625 0.71875 -9.84375 0.3125 -7.4375 C -0.078125 -5.046875 -0.3125 -2.796875 0.953125 -0.5625 C 0.875 -1.359375 0.71875 -2.078125 0.71875 -2.796875 C 0.71875 -3.203125 0.875 -3.59375 0.875 -3.921875 C 0.875 -4.078125 0.71875 -4.5625 0.71875 -4.796875 C 0.71875 -5.515625 0.875 -6.078125 1.046875 -6.796875 C 1.125 -7.515625 1.046875 -8.234375 1.125 -8.953125 C 1.203125 -9.765625 1.515625 -10.40625 1.84375 -11.125 C 2.078125 -11.765625 2.15625 -12.3125 2.40625 -12.953125 C 2.640625 -13.515625 2.796875 -14.15625 3.046875 -14.796875 C 3.125 -15.203125 3.515625 -15.6875 3.765625 -16.15625 C 3.515625 -15.4375 3.046875 -14.796875 2.875 -14.15625 C 2.640625 -13.203125 2.796875 -12.15625 2.71875 -11.203125 C 2.5625 -10.15625 2.234375 -9.125 2.078125 -8 C 1.921875 -6.953125 1.4375 -6 1.28125 -4.953125 C 1.125 -4 0.796875 -3.28125 0.875 -2.3125 C 0.875 -1.765625 0.953125 -1.203125 1.046875 -0.71875 C 1.125 -0.078125 1.515625 0.3125 1.921875 0.796875 C 3.28125 2.40625 5.125 3.6875 7.203125 4.234375 C 8.640625 4.640625 9.921875 4.5625 11.28125 3.84375 C 13.203125 2.796875 14.875 1.203125 16.3125 -0.3125 C 17.6875 -1.84375 18.71875 -3.515625 19.921875 -5.125 C 21.046875 -6.5625 22.40625 -7.921875 23.515625 -9.359375 L 27.84375 -14.953125 L 30.3125 -18.234375 C 30.71875 -18.71875 30.953125 -19.125 30.640625 -19.765625 Z M 10.796875 -18.875 C 10.875 -19.046875 10.875 -19.125 10.875 -19.125 C 12.078125 -21.6875 12.953125 -24.40625 14.640625 -26.875 L 16.078125 -28.796875 C 16.40625 -29.203125 16.953125 -29.921875 17.515625 -30.078125 C 18.71875 -30.3125 19.046875 -28.234375 18.953125 -27.4375 L 18.640625 -25.765625 C 18.5625 -25.28125 18.71875 -24.953125 18.640625 -24.5625 C 18.484375 -24.078125 18.078125 -23.84375 17.84375 -23.4375 L 16.484375 -21.6875 C 14.640625 -19.515625 12.3125 -17.6875 9.765625 -16.3125 C 10.15625 -17.203125 10.40625 -18.078125 10.796875 -18.875 Z M 10.796875 -18.875 "/></g></g></g><g fill="#222222" fill-opacity="1"><g transform="translate(220.963297, 237.026176)"><g><path d="M 20.953125 -19.6875 C 20.796875 -20.71875 19.6875 -20.40625 19.125 -20 C 18.40625 -19.515625 14.40625 -14.234375 14.71875 -13.84375 C 14.953125 -13.84375 15.125 -13.84375 15.28125 -14 C 14.15625 -12.640625 12.078125 -11.125 10.5625 -9.921875 C 9.6875 -9.203125 7.515625 -7.203125 6.234375 -7.84375 C 3.515625 -9.203125 9.046875 -18.796875 8.796875 -18.875 C 8.5625 -18.953125 6.5625 -14.484375 6.15625 -13.4375 C 7.125 -16.234375 8.40625 -19.046875 9.921875 -21.515625 C 9.84375 -21.28125 9.59375 -20.875 9.765625 -20.875 C 9.921875 -20.796875 11.125 -22.484375 10.875 -22.640625 C 10.796875 -22.640625 10.640625 -22.640625 10.5625 -22.5625 C 10.796875 -22.796875 11.203125 -22.875 11.203125 -23.359375 C 11.203125 -24.15625 9.359375 -24.953125 8.71875 -25.203125 C 7.203125 -25.84375 5.6875 -26 4.484375 -25.203125 C 2.875 -24.234375 2.5625 -22.3125 1.921875 -20.640625 C 1.765625 -20.15625 0.234375 -14.484375 0.5625 -14.40625 C 0.71875 -14.484375 0.71875 -14.5625 0.796875 -14.71875 L 0.5625 -13.28125 C 0.484375 -13.28125 0.640625 -13.6875 0.484375 -13.6875 C -0.15625 -13.6875 0 -10.796875 0.078125 -10.40625 C 0.40625 -8.953125 1.515625 -7.921875 2.40625 -6.71875 C 2.875 -6 3.359375 -5.28125 4.078125 -4.796875 C 5.046875 -4.078125 4.40625 -4.796875 5.046875 -4.484375 L 4.875 -4.484375 C 4.796875 -4 7.84375 -3.203125 8.484375 -3.28125 C 11.28125 -3.921875 13.28125 -7.359375 14.875 -9.515625 C 16.40625 -11.4375 17.6875 -13.359375 19.046875 -15.359375 C 19.84375 -16.40625 21.28125 -18.15625 20.953125 -19.6875 Z M 6.953125 -29.765625 C 7.125 -29.515625 6.875 -29.203125 7.4375 -28.875 C 8 -28.640625 8.3125 -28.953125 8.796875 -29.125 C 9.765625 -29.515625 10.484375 -30.5625 11.203125 -31.203125 C 11.4375 -31.359375 10.953125 -31.28125 10.953125 -31.28125 C 12 -32.234375 11.125 -31.125 12.078125 -31.6875 C 13.046875 -32.3125 13.203125 -33.359375 14 -34.234375 C 13.046875 -33.84375 12.3125 -33.28125 11.6875 -32.484375 C 10.875 -31.4375 10.3125 -30.953125 9.4375 -30.40625 C 10.40625 -31.125 10.875 -31.84375 11.6875 -33.125 C 11.921875 -33.359375 12.15625 -33.515625 12.484375 -33.6875 C 12.234375 -33.921875 12.234375 -34.15625 12.5625 -34.40625 C 12.796875 -34.796875 13.28125 -34.953125 13.515625 -35.359375 C 13.921875 -35.921875 13.84375 -36.640625 14.3125 -37.203125 C 14.71875 -37.515625 15.28125 -37.765625 15.59375 -38.078125 C 16.3125 -38.71875 17.125 -39.921875 16.796875 -40.953125 C 16.484375 -41.921875 15.6875 -43.125 14.796875 -43.6875 C 13.765625 -44.234375 12.3125 -44.484375 11.203125 -44 C 10.953125 -43.921875 10 -43.6875 10.3125 -43.359375 C 10.40625 -43.203125 10.484375 -43.203125 10.640625 -43.203125 C 9.921875 -42.640625 8.71875 -41.6875 10.40625 -41.046875 C 10.234375 -40.875 10.40625 -40.15625 10.40625 -40.078125 C 10.3125 -39.515625 9.203125 -36.5625 8.484375 -35.125 L 9.4375 -36.5625 C 8.875 -35.359375 8.234375 -34.234375 7.515625 -33.28125 C 8 -34.3125 7.046875 -33.125 7.046875 -32.875 C 6.15625 -33.28125 6.40625 -30.796875 6.484375 -30.5625 C 6.484375 -30.484375 6.953125 -29.765625 6.953125 -29.765625 Z M 5.4375 -10.71875 L 5.4375 -10.640625 L 5.28125 -10.15625 L 5.4375 -10.796875 C 5.515625 -10.875 5.515625 -10.875 5.4375 -10.71875 Z M 8.078125 -34.484375 C 8.078125 -34.484375 8.234375 -34.640625 8.40625 -34.953125 Z M 7.28125 -32.953125 C 7.28125 -32.875 7.28125 -32.875 7.203125 -32.796875 C 7.203125 -32.796875 7.203125 -32.875 7.125 -32.875 C 7.203125 -32.875 7.203125 -32.875 7.28125 -32.953125 Z M 7.28125 -32.953125 "/></g></g></g><g fill="#222222" fill-opacity="1"><g transform="translate(237.761838, 237.026176)"><g><path d="M 32.796875 -19.4375 C 32.3125 -21.515625 30.40625 -18.71875 30 -18.234375 L 25.59375 -12.3125 L 21.28125 -6.640625 L 18.953125 -3.6875 C 18.71875 -3.359375 16.953125 -1.125 17.125 -1.125 C 17.28125 -1.28125 17.515625 -1.28125 17.765625 -1.515625 C 16.5625 -0.234375 12.15625 3.765625 11.359375 2.796875 C 10.71875 2 12.484375 -1.359375 12.71875 -2.15625 C 13.59375 -4.484375 14.40625 -6.875 15.359375 -9.125 C 16.40625 -11.4375 17.59375 -13.765625 18.5625 -16.078125 C 19.515625 -18.5625 18.078125 -19.4375 15.765625 -20 C 14.71875 -20.234375 13.4375 -20.234375 12.234375 -20.40625 C 12.234375 -20.3125 12.3125 -20.3125 12.3125 -20.3125 C 13.359375 -20.15625 14.875 -20.078125 16.15625 -19.6875 C 14.234375 -20.234375 11.84375 -20 10.3125 -20.40625 C 9.28125 -20.640625 8.640625 -20.640625 8.796875 -21.84375 C 8.953125 -23.4375 10.640625 -25.125 11.203125 -26.640625 C 11.203125 -26.5625 10.640625 -25.125 10.71875 -25.125 C 11.125 -24.953125 11.765625 -27.203125 11.765625 -27.515625 C 11.6875 -27.921875 10.71875 -29.125 10.640625 -28.640625 L 10.796875 -28.40625 C 6.953125 -31.046875 2.40625 -25.59375 3.203125 -21.6875 C 3.359375 -21.125 3.6875 -20.796875 3.921875 -20.15625 C 4.078125 -19.6875 3.921875 -19.125 4.40625 -18.484375 C 6.078125 -16.40625 9.125 -16.3125 11.515625 -16.796875 C 11.125 -16.234375 6.875 -7.28125 7.125 -7.203125 L 6.5625 -5.203125 C 6.484375 -5.28125 6.796875 -5.921875 6.640625 -5.921875 C 6.078125 -6 4.953125 -1.359375 4.875 -0.953125 C 4.5625 0.953125 4.640625 2.640625 5.4375 4.40625 C 5.921875 5.515625 6.484375 6.484375 7.515625 7.125 C 8.484375 7.765625 9.6875 8.078125 10.796875 7.84375 C 11.203125 7.6875 12.71875 6.640625 12.3125 6.71875 L 12.875 6.484375 C 12.796875 6.5625 12.71875 6.640625 12.71875 6.71875 C 12.953125 6.796875 16.640625 3.84375 17.125 3.515625 C 19.6875 1.359375 21.765625 -1.28125 23.6875 -3.921875 C 25.59375 -6.640625 27.59375 -9.359375 29.4375 -12.078125 C 30.3125 -13.359375 31.125 -14.640625 31.765625 -16 C 32.234375 -16.953125 33.046875 -18.3125 32.796875 -19.4375 Z M 8.875 -9.84375 C 9.4375 -11.28125 10.078125 -12.640625 10.796875 -14 C 10.953125 -14.234375 12.078125 -17.125 12.640625 -17.28125 C 12.234375 -17.046875 10.5625 -13.125 10.15625 -12.40625 L 8.640625 -8.875 C 7.84375 -6.953125 6.953125 -4.953125 6.40625 -2.875 C 6.953125 -5.28125 7.921875 -7.59375 8.875 -9.84375 Z M 6.953125 5.515625 C 7.4375 6.15625 8.078125 6.796875 8.953125 7.125 C 8.234375 6.875 7.59375 6.484375 7.125 6 C 7.203125 6 7.203125 6.078125 7.203125 6.15625 C 6.71875 5.515625 6.078125 4.15625 6 3.921875 C 5.765625 2.953125 5.6875 1.84375 5.765625 0.875 C 5.765625 0.078125 5.84375 -0.5625 6 -1.28125 L 6 -1.203125 C 5.84375 -0.15625 5.765625 0.875 5.84375 2 L 5.84375 2.40625 C 5.765625 2.3125 5.765625 2.234375 5.765625 2.234375 C 5.765625 2.234375 5.765625 2.3125 5.84375 2.484375 L 5.84375 2.5625 L 6.15625 4.234375 L 5.921875 3.203125 C 6.078125 3.6875 6.484375 4.5625 6.875 5.4375 L 6.796875 5.359375 C 6.796875 5.4375 6.875 5.515625 6.953125 5.59375 Z M 9.203125 -20.875 C 9.59375 -20.5625 10.3125 -20.484375 11.046875 -20.40625 C 10.40625 -20.484375 9.84375 -20.640625 9.4375 -20.953125 C 9.4375 -20.953125 8.953125 -21.359375 8.875 -21.515625 C 8.875 -21.359375 9.046875 -20.953125 9.203125 -20.875 Z M 17.59375 -14.640625 L 15.921875 -11.125 L 17.59375 -14.71875 Z M 6.078125 -1.515625 C 6.078125 -1.4375 6 -1.359375 6 -1.28125 L 6 -1.359375 C 6 -1.4375 6.078125 -1.4375 6.078125 -1.515625 Z M 17.6875 -14.875 L 17.6875 -14.796875 L 17.59375 -14.796875 Z M 17.6875 -14.875 L 17.6875 -14.796875 L 17.59375 -14.796875 Z M 6.15625 -2.5625 C 6.15625 -2.640625 6.234375 -2.71875 6.234375 -2.875 C 6.234375 -2.71875 6.15625 -2.640625 6.15625 -2.5625 Z M 6.484375 4.796875 C 6.484375 4.796875 6.5625 4.875 6.5625 4.953125 C 6.5625 4.875 6.484375 4.875 6.484375 4.796875 Z M 8.953125 -21.6875 C 8.875 -21.6875 8.875 -21.59375 8.875 -21.59375 Z M 8.953125 -21.6875 "/></g></g></g><g fill="#222222" fill-opacity="1"><g transform="translate(266.399222, 237.026176)"><g><path d="M 40.71875 -19.28125 C 40.640625 -21.046875 39.203125 -19.515625 38.71875 -18.875 C 37.6875 -17.359375 36.71875 -15.765625 35.765625 -14.234375 C 33.59375 -10.953125 31.4375 -7.6875 28.953125 -4.5625 C 20.71875 5.59375 26.484375 -12.484375 25.84375 -12.3125 C 25.515625 -12.234375 25.28125 -11.046875 25.203125 -10.796875 C 25.84375 -13.6875 27.046875 -17.125 28.5625 -19.921875 C 29.4375 -21.6875 30.484375 -23.125 28.875 -25.046875 C 25.921875 -28.640625 22.484375 -25.359375 20.5625 -22.875 C 19.765625 -25.921875 18.15625 -30.40625 14.234375 -30.40625 C 12.484375 -30.40625 11.4375 -29.515625 10.234375 -28.484375 C 9.515625 -28 8.953125 -27.921875 8.3125 -27.359375 C 7.28125 -26.640625 6.5625 -25.515625 5.84375 -24.5625 C 3.125 -20.5625 1.203125 -15.515625 0.3125 -10.875 C -0.078125 -8.640625 -0.234375 -6.15625 0.40625 -3.921875 C 0.796875 -2.640625 2.234375 0.234375 4.078125 0 C 4.15625 0 4 -0.078125 3.765625 -0.234375 C 4.875 0.078125 6.15625 -0.078125 7.125 -0.71875 C 7.203125 -0.5625 6.234375 -0.15625 6.234375 -0.15625 C 7.125 1.203125 13.6875 -6.71875 14.15625 -7.4375 C 15.203125 -8.875 15.921875 -10.40625 16.875 -11.921875 C 17.59375 -13.046875 18.71875 -14.484375 19.515625 -15.6875 C 19.4375 -15.125 19.4375 -14.40625 19.4375 -14.40625 C 18 -9.84375 16.640625 -4.875 18.5625 -0.15625 C 19.4375 2.234375 21.59375 4.484375 24.3125 4 C 26.71875 3.59375 28.71875 1.28125 30.15625 -0.5625 C 31.921875 -2.640625 33.4375 -4.953125 34.953125 -7.359375 C 36.234375 -9.515625 37.4375 -11.6875 38.484375 -14.078125 C 39.125 -15.59375 40.875 -17.4375 40.71875 -19.28125 Z M 17.765625 -18.71875 C 17.359375 -18.15625 16.953125 -17.59375 16.640625 -17.046875 L 14.5625 -14.078125 C 13.203125 -12.078125 11.765625 -10.15625 10.234375 -8.3125 C 9.84375 -7.765625 7.921875 -5.28125 7.125 -5.515625 C 5.921875 -5.921875 7.203125 -10.078125 7.359375 -10.71875 C 7.59375 -11.84375 11.84375 -24.15625 12.953125 -24.40625 C 11.515625 -24.484375 6.875 -10 6.640625 -8.796875 C 7.28125 -12.71875 8.71875 -16.5625 10.3125 -20.15625 C 11.203125 -22 13.203125 -26.875 15.84375 -26.875 C 17.28125 -26.875 17.59375 -23.921875 17.84375 -22.953125 C 17.765625 -23.125 17.046875 -25.4375 16.953125 -25.359375 C 16.5625 -25.046875 18.15625 -20.640625 18.15625 -20 C 18.15625 -19.359375 18.15625 -19.359375 17.765625 -18.71875 Z M 19.59375 -14.796875 C 19.59375 -14.796875 19.84375 -15.921875 19.921875 -16.15625 L 20.3125 -16.71875 Z M 18.40625 -19.765625 L 18.40625 -20.5625 C 18.640625 -20.234375 18.640625 -20 18.40625 -19.765625 Z M 18.40625 -19.765625 "/></g></g></g></svg>